SplineFontDB: 3.2
FontName: Untitled1
FullName: Untitled1
FamilyName: Untitled1
Weight: Regular
Copyright: Copyright (c) 2025, phine
UComments: "2025-3-9: Created with FontForge (http://fontforge.org)"
Version: 001.000
ItalicAngle: 0
UnderlinePosition: -100
UnderlineWidth: 50
Ascent: 800
Descent: 200
InvalidEm: 0
LayerCount: 2
Layer: 0 0 "Back" 1
Layer: 1 0 "Fore" 0
XUID: [1021 4 447193481 28954]
OS2Version: 0
OS2_WeightWidthSlopeOnly: 0
OS2_UseTypoMetrics: 1
CreationTime: 1741482202
ModificationTime: 1741494243
OS2TypoAscent: 0
OS2TypoAOffset: 1
OS2TypoDescent: 0
OS2TypoDOffset: 1
OS2TypoLinegap: 0
OS2WinAscent: 0
OS2WinAOffset: 1
OS2WinDescent: 0
OS2WinDOffset: 1
HheadAscent: 0
HheadAOffset: 1
HheadDescent: 0
HheadDOffset: 1
OS2Vendor: 'wofl'
DEI: 91125
Encoding: UnicodeBmp
UnicodeInterp: none
NameList: AGL For New Fonts
DisplaySize: -72
AntiAlias: 1
FitToEm: 0
WinInfo: 0 36 15
BeginChars: 65536 71

StartChar: exclam
Encoding: 33 33 0
Width: 0
VWidth: 900
Flags: HMW
LayerCount: 2
Back
Fore
SplineSet
272 574 m 0
 272 580 269 583 272 588 c 0
 275 593 279 606 279 620 c 0
 279 634 283 638 295 638 c 0
 330 638 364 600 364 587 c 0
 364 577 344 537 315 537 c 0
 295 537 272 557 272 574 c 0
147 203 m 0
 147 191 151 175 161 138 c 2
 170 106 l 1
 200 106 231 111 261 111 c 1
 261 173 l 2
 261 199 260 206 254 208 c 0
 246 212 210 214 150 214 c 0
 150 214 147 214 147 203 c 0
75 263 m 0
 75 268 76 274 79 278 c 0
 87 286 113 288 180 288 c 0
 359 288 384 274 384 250 c 0
 384 235 375 217 360 202 c 0
 341 183 326 152 326 125 c 0
 326 113 329 108 340 105 c 0
 355 101 364 90 364 74 c 0
 364 54 351 22 335 7 c 0
 330 3 328 3 320 3 c 2
 320 3 256 40 222 40 c 0
 188 40 191 3 152 3 c 0
 146 3 85 4 85 51 c 0
 85 72 97 87 97 121 c 0
 97 168 75 240 75 263 c 0
46 579 m 0
 46 586 47 626 87 626 c 0
 103 626 114 620 122 607 c 0
 125 602 135 588 142 580 c 2
 153 567 l 1
 139 552 l 2
 128 541 109 533 89 533 c 0
 52 533 46 561 46 579 c 0
-384 630 m 0
 -384 638 -361 664 -351 667 c 0
 -345 669 -318 669 -266 669 c 2
 -253 669 l 2
 -212 669 -190 668 -132 668 c 0
 -74 668 -55 667 -45 655 c 0
 -35 644 -34 625 -34 456 c 0
 -34 162 -37 32 -44 19 c 0
 -51 5 -136 3 -202 3 c 0
 -283 3 -332 6 -347 10 c 0
 -362 13 -371 23 -371 33 c 0
 -371 45 -357 92 -334 92 c 0
 -318 92 -290 67 -202 67 c 0
 -172 67 -156 70 -135 70 c 0
 -95 70 -93 81 -93 248 c 2
 -93 253 l 2
 -93 447 -102 569 -118 589 c 0
 -126 599 -158 607 -200 607 c 0
 -230 607 -244 603 -278 603 c 0
 -308 603 -323 600 -347 600 c 0
 -367 600 -371 602 -378 615 c 0
 -382 622 -384 628 -384 630 c 0
169 436 m 0
 169 437 174 480 203 480 c 0
 226 480 261 454 261 431 c 0
 261 409 230 377 209 377 c 0
 202 377 195 381 185 391 c 0
 171 405 170 411 170 424 c 2
 170 429 l 2
 170 434 169 435 169 436 c 0
169 436 m 1
 168 438 167 429 169 436 c 1
EndSplineSet
Validated: 5
EndChar

StartChar: quotedbl
Encoding: 34 34 1
Width: 0
VWidth: 902
Flags: HMW
LayerCount: 2
Back
Fore
SplineSet
9 334 m 0
 9 637 11 658 19 669 c 0
 30 682 53 683 104 683 c 0
 175 683 207 685 255 685 c 0
 323 685 337 681 351 656 c 0
 355 648 357 643 357 638 c 0
 357 635 358 636 346 624 c 2
 330 609 l 1
 272 616 l 2
 248 619 221 621 194 621 c 0
 146 621 111 615 96 605 c 0
 74 590 70 551 70 263 c 0
 70 119 71 103 80 94 c 0
 89 85 105 83 191 83 c 0
 251 83 258 84 280 97 c 0
 291 103 299 107 305 107 c 0
 327 107 343 61 343 43 c 0
 343 20 319 17 217 17 c 0
 60 17 30 24 23 32 c 0
 10 45 9 119 9 334 c 0
-176 548 m 0
 -176 552 -165 578 -165 599 c 0
 -165 614 -159 621 -147 621 c 0
 -123 621 -85 591 -85 569 c 0
 -85 549 -115 518 -132 518 c 0
 -147 518 -176 542 -176 548 c 0
-176 99 m 0
 -176 123 -146 150 -121 150 c 0
 -116 150 -114 149 -110 149 c 0
 -88 149 -103 114 -90 101 c 0
 -87 98 -85 93 -85 89 c 0
 -85 73 -109 46 -129 46 c 0
 -151 46 -176 78 -176 99 c 0
-288 390 m 0
 -288 382 -263 305 -258 299 c 0
 -255 294 -238 291 -220 291 c 0
 -209 291 -198 292 -171 297 c 1
 -171 375 -173 395 -181 398 c 0
 -185 400 -202 400 -202 400 c 0
 -271 400 -288 397 -288 390 c 0
-357 447 m 0
 -357 472 -328 473 -249 473 c 2
 -229 473 l 2
 -57 473 -48 470 -48 441 c 0
 -48 422 -52 412 -64 400 c 0
 -86 378 -107 336 -107 312 c 0
 -107 279 -68 304 -68 263 c 0
 -68 231 -93 191 -116 191 c 0
 -137 191 -192 226 -220 226 c 0
 -245 226 -244 196 -264 189 c 0
 -266 188 -268 187 -274 187 c 0
 -301 187 -346 205 -346 223 c 0
 -346 232 -334 254 -334 293 c 0
 -334 346 -357 424 -357 447 c 0
EndSplineSet
Validated: 1
EndChar

StartChar: ampersand
Encoding: 38 38 2
Width: 0
VWidth: 900
Flags: HMW
LayerCount: 2
Back
Fore
SplineSet
-218 526 m 0
 -218 555 -208 556 -70 556 c 0
 125 556 207 554 218 548 c 0
 223 545 226 534 226 528 c 0
 226 522 223 471 179 471 c 0
 156 471 92 485 69 485 c 0
 52 485 46 478 46 460 c 0
 46 452 47 445 48 437 c 2
 52 398 l 1
 129 398 l 2
 203 398 223 392 223 373 c 0
 223 359 212 351 212 216 c 0
 212 146 209 126 181 126 c 0
 147 126 107 155 107 174 c 0
 107 179 110 185 116 190 c 0
 133 204 153 252 153 282 c 0
 153 310 136 332 104 332 c 0
 91 332 75 336 59 336 c 0
 59 336 55 336 52 334 c 0
 41 326 37 290 37 227 c 0
 37 173 34 163 34 132 c 0
 34 89 40 85 80 85 c 2
 82 85 l 2
 102 85 134 85 134 54 c 0
 134 40 128 31 120 28 c 0
 108 24 60 20 -24 20 c 0
 -108 20 -126 24 -126 52 c 0
 -126 90 -93 125 -83 125 c 0
 -76 125 -55 108 -44 108 c 0
 -33 108 -29 126 -29 176 c 2
 -29 190 l 2
 -29 252 -34 312 -41 324 c 0
 -46 332 -62 336 -83 336 c 0
 -94 336 -153 335 -153 307 c 0
 -153 290 -132 232 -132 182 c 0
 -132 167 -134 155 -137 149 c 0
 -143 138 -172 120 -182 120 c 0
 -187 120 -194 124 -201 131 c 0
 -213 143 -213 151 -213 272 c 2
 -213 284 l 2
 -213 394 -210 399 -138 399 c 2
 -128 399 l 2
 -64 399 -42 401 -38 407 c 0
 -36 410 -23 440 -23 461 c 0
 -23 479 -32 485 -54 485 c 0
 -70 485 -96 482 -148 474 c 2
 -191 467 l 1
 -205 482 l 2
 -213 492 -218 506 -218 526 c 0
-329 297 m 2
 -329 336 l 2
 -329 607 -328 643 -320 654 c 2
 -311 667 l 1
 0 667 l 2
 245 667 312 665 321 658 c 0
 328 652 329 614 329 396 c 2
 329 371 l 2
 329 124 326 22 320 14 c 0
 318 11 310 9 304 9 c 0
 281 9 231 37 231 51 c 0
 231 56 238 78 243 94 c 0
 267 164 272 210 272 336 c 2
 272 345 l 2
 272 482 266 562 252 584 c 0
 240 604 202 608 -7 608 c 2
 -16 608 l 2
 -193 608 -247 606 -258 599 c 0
 -264 594 -265 580 -265 502 c 0
 -265 255 -255 117 -229 63 c 0
 -227 59 -226 55 -226 52 c 0
 -226 35 -273 9 -297 9 c 2
 -298 9 l 2
 -329 9 -329 14 -329 297 c 2
EndSplineSet
Validated: 1
EndChar

StartChar: quotesingle
Encoding: 39 39 3
Width: 0
VWidth: 930
Flags: HMW
LayerCount: 2
Back
Fore
SplineSet
-221 611 m 0
 -221 636 -217 677 -214 680 c 0
 -210 684 -151 686 4 686 c 2
 10 686 l 2
 216 686 221 685 221 659 c 0
 221 619 209 603 175 603 c 0
 147 603 131 614 91 614 c 2
 89 614 l 2
 64 614 52 613 50 610 c 0
 44 602 37 440 25 410 c 0
 20 398 7 389 -7 389 c 0
 -23 389 -31 401 -31 430 c 0
 -31 447 -28 498 -28 525 c 0
 -28 556 -32 585 -38 598 c 2
 -48 618 l 1
 -86 618 l 2
 -107 615 -140 605 -158 605 c 0
 -166 605 -173 603 -180 603 c 0
 -193 603 -205 595 -214 595 c 0
 -220 595 -221 599 -221 611 c 0
EndSplineSet
Validated: 1
EndChar

StartChar: asterisk
Encoding: 42 42 4
Width: 0
VWidth: 895
Flags: HMW
LayerCount: 2
Back
Fore
SplineSet
52 300 m 0
 52 322 72 341 192 341 c 0
 240 341 258 338 258 309 c 0
 258 276 235 237 215 237 c 0
 200 237 200 260 106 274 c 0
 58 281 52 288 52 300 c 0
-38 436 m 2
 -38 447 l 2
 -38 536 -35 555 -12 555 c 0
 14 555 65 531 65 500 c 0
 65 485 53 526 25 372 c 0
 21 353 20 350 3 350 c 0
 -32 350 -38 363 -38 436 c 2
-60 94 m 0
 -60 101 -56 112 -51 123 c 0
 -28 171 -25 239 -16 251 c 0
 -12 256 -1 260 10 260 c 0
 17 260 25 258 28 255 c 0
 34 249 37 214 37 127 c 0
 37 76 36 69 27 61 c 0
 21 55 14 51 7 51 c 0
 -6 51 -60 66 -60 94 c 0
-258 293 m 0
 -258 307 -244 363 -203 363 c 0
 -172 363 -152 331 -101 331 c 0
 -69 331 -51 319 -51 288 c 0
 -51 268 -58 266 -232 266 c 0
 -232 266 -244 266 -251 274 c 0
 -255 278 -258 286 -258 293 c 0
EndSplineSet
Validated: 1
EndChar

StartChar: comma
Encoding: 44 44 5
Width: 0
VWidth: 897
Flags: HMW
LayerCount: 2
Back
Fore
SplineSet
178 299 m 0
 178 329 186 354 195 354 c 0
 197 354 202 352 208 352 c 2
 244 352 l 1
 249 328 l 2
 250 324 251 319 251 312 c 0
 251 277 229 258 219 258 c 0
 216 258 212 260 196 275 c 0
 179 290 178 289 178 299 c 0
160 313 m 1
 160 302 166 293 178 285 c 1
 178 283 173 55 167 55 c 0
 164 55 160 216 160 313 c 1
-251 604 m 1
 -251 619 -236 642 -222 646 c 0
 -213 648 -170 651 -100 651 c 0
 8 651 78 644 89 635 c 0
 96 629 96 606 96 606 c 0
 96 131 94 13 87 -0 c 0
 81 -12 28 -18 -84 -18 c 2
 -89 -18 l 2
 -199 -18 -212 -17 -228 -5 c 0
 -237 2 -241 8 -241 12 c 0
 -241 18 -231 68 -198 68 c 0
 -191 68 -182 66 -171 61 c 0
 -148 50 -125 47 -51 47 c 2
 -39 47 l 2
 32 47 38 59 38 203 c 2
 38 230 l 2
 38 433 32 530 19 556 c 0
 8 578 -25 588 -82 588 c 0
 -141 588 -191 577 -214 577 c 0
 -249 577 -251 604 -251 604 c 1
EndSplineSet
Validated: 1
EndChar

StartChar: zero
Encoding: 48 48 6
Width: 0
VWidth: 893
Flags: HMW
LayerCount: 2
Back
Fore
SplineSet
-334 316 m 0
 -334 594 -332 620 -323 630 c 0
 -315 640 -295 641 27 641 c 0
 255 641 321 640 326 630 c 0
 331 621 334 509 334 247 c 0
 334 33 332 -3 323 -17 c 0
 319 -22 315 -22 111 -22 c 2
 -267 -22 l 1
 -267 15 -257 57 -249 57 c 0
 -248 57 -248 56 -248 56 c 1
 -233 44 l 1
 -70 44 93 39 256 39 c 1
 265 52 l 2
 273 65 278 145 278 259 c 0
 278 394 271 504 255 564 c 0
 251 581 249 582 34 582 c 2
 -256 582 l 1
 -266 565 l 2
 -271 555 -274 350 -274 16 c 2
 -274 -22 l 1
 -308 -22 -319 -21 -324 -14 c 0
 -332 -3 -334 38 -334 316 c 0
-274 -22 m 1
 -267 -22 l 1
 -270 -39 -273 -58 -274 -58 c 1
 -274 -22 l 1
EndSplineSet
Validated: 5
EndChar

StartChar: one
Encoding: 49 49 7
Width: 0
VWidth: 896
Flags: HMW
LayerCount: 2
Back
Fore
SplineSet
-333 330 m 0
 -333 516 -332 631 -326 637 c 0
 -323 640 -302 642 -275 642 c 1
 -275 637 l 2
 -275 326 -266 83 -252 57 c 0
 -245 43 -211 42 -37 42 c 0
 208 42 250 44 261 52 c 0
 270 58 271 75 271 242 c 2
 271 261 l 2
 271 505 270 524 261 543 c 0
 254 558 243 571 235 575 c 0
 225 579 184 585 136 585 c 0
 88 585 56 579 51 574 c 0
 47 570 44 551 44 507 c 0
 44 434 36 341 36 229 c 0
 36 160 33 149 3 149 c 0
 -10 149 -22 151 -24 154 c 0
 -27 158 -27 196 -27 281 c 2
 -27 364 l 2
 -27 523 -31 558 -49 575 c 0
 -56 582 -65 585 -132 585 c 2
 -257 585 l 1
 -266 570 l 2
 -266 569 -266 570 -267 570 c 0
 -270 570 -275 610 -275 642 c 1
 -268 642 l 2
 -133 642 -34 644 122 644 c 0
 278 644 317 642 325 634 c 0
 333 626 333 593 333 287 c 0
 333 -19 333 -19 39 -19 c 0
 -255 -19 -317 -19 -326 -12 c 0
 -330 -8 -333 8 -333 330 c 0
EndSplineSet
Validated: 5
EndChar

StartChar: two
Encoding: 50 50 8
Width: 0
VWidth: 898
Flags: HMW
LayerCount: 2
Back
Fore
SplineSet
-334 326 m 2
 -334 337 l 2
 -334 556 -332 632 -325 639 c 0
 -322 642 -303 647 -290 647 c 2
 -278 647 l 1
 -278 667 l 1
 -276 663 -276 654 -276 647 c 1
 -205 647 -158 648 -87 648 c 2
 -30 648 l 2
 273 648 313 646 328 633 c 0
 334 627 334 621 334 319 c 0
 334 17 334 10 323 -4 c 2
 312 -18 l 1
 0 -18 l 2
 -278 -18 -316 -17 -323 -10 c 0
 -331 -2 -334 51 -334 326 c 2
-276 647 m 1
 -278 647 l 1
 -278 386 l 2
 -278 230 -271 108 -261 78 c 0
 -253 53 -227 44 -165 44 c 0
 -144 44 -133 45 -130 52 c 0
 -127 60 -126 105 -126 162 c 0
 -126 276 -130 370 -137 400 c 0
 -144 429 -162 434 -162 447 c 0
 -162 463 -137 474 -101 474 c 0
 -86 474 -72 472 -65 469 c 2
 -48 463 l 1
 -48 382 l 2
 -48 324 -60 230 -60 172 c 2
 -60 44 l 1
 92 44 l 2
 214 44 250 47 262 56 c 0
 271 62 272 74 272 241 c 0
 272 530 269 556 241 574 c 0
 226 583 210 586 179 586 c 2
 140 586 l 1
 136 568 l 2
 131 537 126 411 126 304 c 0
 126 168 118 151 60 151 c 0
 60 151 59 152 59 338 c 0
 59 524 58 538 47 560 c 2
 35 586 l 1
 -178 586 l 2
 -246 586 -255 585 -258 583 c 0
 -259 582 -260 582 -261 582 c 0
 -271 582 -276 619 -276 647 c 1
EndSplineSet
Validated: 5
EndChar

StartChar: three
Encoding: 51 51 9
Width: 0
VWidth: 900
Flags: HMW
LayerCount: 2
Back
Fore
SplineSet
-335 44 m 0
 -335 53 -332 61 -330 65 c 0
 -321 89 -311 94 -295 94 c 0
 -266 94 -213 79 -170 79 c 0
 -159 79 -152 78 -144 78 c 0
 -136 78 -133 79 -132 83 c 0
 -128 94 -124 150 -124 220 c 2
 -124 223 l 2
 -124 339 -130 372 -150 391 c 0
 -157 397 -162 405 -162 410 c 0
 -162 421 -133 434 -107 434 c 0
 -100 434 -96 433 -90 433 c 0
 -77 433 -68 429 -58 429 c 1
 -58 580 l 1
 -11 427 l 1
 37 427 l 1
 12 580 l 1
 37 574 54 438 54 432 c 0
 54 428 48 427 37 427 c 1
 96 71 l 1
 128 71 150 70 181 70 c 0
 235 70 254 73 262 79 c 0
 272 87 273 108 273 265 c 2
 273 284 l 2
 273 609 272 613 187 613 c 2
 141 613 l 1
 141 574 l 2
 141 507 129 458 129 369 c 0
 129 311 124 290 100 274 c 0
 97 272 95 272 95 272 c 0
 88 272 69 287 69 306 c 0
 69 318 59 387 59 412 c 0
 59 418 59 423 59 428 c 0
 59 441 60 450 60 464 c 0
 60 509 49 594 41 603 c 0
 34 611 -11 613 -79 613 c 0
 -253 613 -273 600 -273 578 c 0
 -273 555 -250 475 -250 465 c 0
 -250 454 -281 436 -309 436 c 0
 -333 436 -335 450 -335 535 c 2
 -335 544 l 2
 -335 653 -333 669 -316 672 c 0
 -309 673 -286 674 -206 674 c 0
 -126 674 -54 673 85 673 c 0
 282 673 315 671 326 661 c 0
 334 653 335 636 335 439 c 0
 335 160 333 28 329 22 c 0
 328 20 318 15 315 14 c 0
 301 9 177 5 -35 5 c 0
 -218 5 -304 8 -319 14 c 0
 -328 17 -335 31 -335 44 c 0
EndSplineSet
Validated: 5
EndChar

StartChar: four
Encoding: 52 52 10
Width: 0
VWidth: 896
Flags: HMW
LayerCount: 2
Back
Fore
SplineSet
-87 585 m 1
 -65 495 -47 468 -9 468 c 0
 1 468 10 466 28 466 c 0
 59 466 59 472 59 472 c 0
 59 520 52 557 44 570 c 2
 35 585 l 1
 -87 585 l 1
-336 533 m 2
 -336 544 l 2
 -336 618 -332 639 -317 642 c 0
 -305 645 -235 646 -62 646 c 2
 -27 646 l 2
 287 646 315 645 327 634 c 0
 335 627 336 616 336 526 c 0
 336 436 335 408 307 408 c 0
 287 408 248 422 248 435 c 0
 248 445 273 539 273 560 c 0
 273 585 238 585 238 585 c 0
 191 585 181 582 144 582 c 1
 134 539 125 177 118 159 c 0
 116 154 105 149 93 149 c 0
 76 149 59 159 59 170 c 0
 59 188 16 210 -20 210 c 2
 -38 210 l 1
 -29 256 -17 278 33 278 c 0
 57 278 64 283 64 322 c 0
 64 367 55 377 3 390 c 0
 -19 395 -29 396 -34 396 c 0
 -39 396 -42 397 -42 397 c 2
 -45 394 -48 254 -48 144 c 1
 -47 150 -45 160 -45 167 c 1
 -45 0 l 2
 -45 -14 -58 -21 -76 -21 c 0
 -92 -21 -112 -15 -117 -8 c 0
 -120 -2 -122 15 -122 63 c 0
 -122 111 -120 151 -120 216 c 2
 -120 247 l 2
 -120 369 -125 406 -147 430 c 2
 -162 446 l 1
 -149 457 l 2
 -142 464 -138 535 -128 585 c 1
 -256 585 -273 582 -273 555 c 0
 -273 524 -250 464 -250 443 c 0
 -250 415 -290 408 -308 408 c 0
 -330 408 -336 418 -336 533 c 2
-45 167 m 1
 -45 210 l 1
 -38 210 l 1
 -41 195 -43 179 -45 167 c 1
EndSplineSet
Validated: 5
EndChar

StartChar: five
Encoding: 53 53 11
Width: 0
VWidth: 897
Flags: HMW
LayerCount: 2
Back
Fore
SplineSet
-331 613 m 0
 -331 623 -329 632 -326 634 c 0
 -316 643 -181 646 55 646 c 2
 110 646 l 2
 264 646 314 645 319 641 c 0
 327 635 331 551 331 383 c 0
 331 238 328 149 320 141 c 0
 318 139 309 136 300 136 c 0
 275 136 249 156 249 168 c 0
 249 179 271 199 271 489 c 2
 271 490 l 2
 271 576 266 584 208 584 c 2
 170 584 l 2
 144 584 140 584 139 580 c 0
 136 566 123 319 123 280 c 0
 123 256 118 245 103 235 c 0
 101 234 98 233 93 233 c 0
 87 233 83 235 76 238 c 2
 60 245 l 1
 60 296 l 2
 60 310 63 320 63 332 c 0
 63 344 60 352 56 356 c 0
 39 373 -34 389 -92 389 c 0
 -128 389 -147 383 -147 370 c 0
 -147 349 -101 269 -57 214 c 0
 -6 151 82 72 140 38 c 0
 165 24 177 10 177 0 c 0
 177 -13 155 -16 101 -16 c 0
 67 -16 61 -14 0 53 c 0
 -159 230 -246 354 -246 404 c 0
 -246 412 -248 415 -245 423 c 0
 -243 430 -237 442 -230 446 c 0
 -199 466 31 462 54 470 c 0
 59 472 60 475 60 488 c 2
 60 495 l 2
 60 521 55 547 45 567 c 2
 37 584 l 1
 -76 584 l 2
 -222 584 -249 563 -283 563 c 0
 -329 563 -331 603 -331 613 c 0
EndSplineSet
Validated: 1
EndChar

StartChar: six
Encoding: 54 54 12
Width: 0
VWidth: 897
Flags: HMW
LayerCount: 2
Back
Fore
SplineSet
-15 208 m 2
 -15 193 -12 192 8 192 c 0
 28 192 34 191 46 191 c 0
 63 191 72 193 81 202 c 0
 95 215 103 236 103 265 c 0
 103 279 101 291 96 294 c 0
 91 297 54 303 20 303 c 0
 -4 303 -6 300 -12 250 c 0
 -15 221 -15 216 -15 213 c 2
 -15 208 l 2
-274 525 m 0
 -274 513 -273 505 -273 495 c 2
 -273 459 l 1
 -185 459 -94 453 -6 453 c 1
 3 428 l 2
 8 414 17 398 21 394 c 0
 30 385 74 371 95 371 c 0
 100 371 105 372 106 373 c 0
 110 377 112 403 112 453 c 0
 112 532 107 571 94 580 c 0
 80 589 14 592 -75 592 c 0
 -177 592 -247 588 -257 584 c 0
 -267 580 -274 556 -274 525 c 0
-333 224 m 0
 -333 515 -331 631 -325 643 c 0
 -322 650 -300 651 -30 651 c 0
 240 651 317 650 326 644 c 0
 332 639 333 612 333 526 c 0
 333 440 332 391 332 315 c 2
 332 -8 l 1
 315 -13 l 2
 312 -14 309 -14 309 -14 c 0
 280 -14 231 12 231 31 c 1
 245 60 275 119 275 305 c 0
 275 381 264 476 264 527 c 0
 264 559 258 567 250 574 c 0
 240 582 226 586 213 586 c 2
 195 586 l 1
 195 535 l 2
 195 339 181 157 166 139 c 0
 159 131 127 128 48 128 c 2
 -65 128 l 1
 -78 140 l 2
 -85 148 -88 158 -88 162 c 0
 -88 167 -81 238 -81 298 c 2
 -81 313 l 2
 -81 354 -82 359 -92 372 c 0
 -100 383 -102 383 -186 383 c 2
 -271 383 l 1
 -271 323 l 2
 -271 216 -256 101 -235 46 c 0
 -231 37 -230 31 -230 28 c 0
 -230 7 -285 -16 -300 -16 c 0
 -306 -16 -315 -12 -320 -8 c 0
 -332 2 -333 18 -333 224 c 0
EndSplineSet
Validated: 1
EndChar

StartChar: seven
Encoding: 55 55 13
Width: 0
VWidth: 897
Flags: HMW
LayerCount: 2
Back
Fore
SplineSet
126 476 m 1
 172 476 l 2
 199 476 237 469 246 469 c 0
 262 469 272 490 272 541 c 2
 272 555 l 2
 272 574 273 578 272 579 c 0
 270 582 248 584 191 584 c 0
 191 584 173 584 165 583 c 0
 142 578 126 548 126 511 c 2
 126 476 l 1
-268 565 m 0
 -268 544 -260 485 -254 478 c 0
 -250 473 -227 471 -192 471 c 0
 -150 471 -119 474 -116 480 c 0
 -116 480 -115 481 -115 489 c 0
 -115 501 -117 514 -118 519 c 0
 -127 578 -139 584 -223 584 c 2
 -232 584 l 2
 -236 584 -240 584 -240 584 c 0
 -262 584 -268 583 -268 565 c 0
-337 384 m 1
 -337 501 l 2
 -337 586 -335 632 -332 637 c 0
 -329 641 -306 644 -248 644 c 0
 -214 644 -193 643 -130 643 c 0
 -67 643 -50 642 -43 635 c 0
 -37 629 -35 615 -35 567 c 0
 -35 490 -40 435 -40 340 c 0
 -40 255 -44 191 -44 118 c 0
 -44 67 -42 50 -38 47 c 0
 -35 45 -22 44 -10 44 c 0
 2 44 6 45 22 45 c 0
 38 45 38 46 40 53 c 0
 45 72 47 116 47 242 c 2
 47 323 l 2
 47 553 44 590 18 604 c 0
 12 607 9 611 9 614 c 0
 9 619 15 627 29 636 c 0
 42 643 51 645 127 645 c 2
 138 645 l 2
 300 645 333 644 338 636 c 0
 340 632 340 620 340 620 c 0
 340 561 338 513 338 478 c 0
 338 387 352 402 352 384 c 0
 352 346 291 337 275 337 c 0
 242 337 263 378 210 392 c 0
 197 395 170 399 154 399 c 2
 123 399 l 1
 123 326 l 2
 123 286 115 228 115 188 c 0
 115 174 116 163 116 149 c 2
 116 47 l 1
 189 47 l 2
 257 47 264 48 271 55 c 0
 279 63 281 72 281 84 c 0
 281 103 276 125 268 154 c 2
 256 193 l 1
 272 210 l 2
 282 219 298 225 311 225 c 0
 321 225 330 222 333 219 c 0
 341 211 346 168 346 105 c 0
 346 42 341 4 335 -4 c 0
 327 -14 287 -15 -34 -15 c 2
 -77 -15 l 2
 -255 -15 -296 -14 -305 -9 c 2
 -321 0 l 1
 -321 136 l 2
 -321 205 -321 225 -292 225 c 0
 -279 225 -268 221 -257 215 c 0
 -243 207 -240 202 -240 184 c 0
 -240 152 -249 167 -256 121 c 0
 -257 113 -259 94 -262 85 c 0
 -262 84 -262 84 -262 84 c 0
 -262 74 -259 67 -248 56 c 0
 -236 44 -229 42 -175 42 c 2
 -165 42 l 2
 -112 42 -110 49 -110 174 c 2
 -110 195 l 2
 -110 305 -111 379 -115 379 c 0
 -117 379 -128 369 -140 369 c 0
 -158 369 -183 393 -214 399 c 0
 -225 401 -228 399 -232 399 c 0
 -248 399 -252 370 -265 365 c 0
 -267 364 -270 363 -275 363 c 0
 -291 363 -317 372 -337 384 c 1
-352 399 m 1
 -352 375 -337 423 -337 302 c 0
 -337 220 -344 59 -349 47 c 1
 -349 247 -352 393 -352 399 c 1
EndSplineSet
Validated: 1
EndChar

StartChar: eight
Encoding: 56 56 14
Width: 0
VWidth: 896
Flags: HMW
LayerCount: 2
Back
Fore
SplineSet
-333 36 m 1
 -333 255 -326 410 -320 410 c 1
 -315 405 -312 403 -309 403 c 0
 -305 403 -253 408 -253 435 c 0
 -253 452 -273 520 -273 530 c 2
 -273 535 l 1
 -240 475 -201 408 -167 345 c 1
 -152 345 -141 346 -128 346 c 2
 -38 346 l 1
 -38 402 l 2
 -38 422 -40 426 -50 426 c 0
 -76 426 -109 399 -120 399 c 0
 -135 399 -162 442 -162 474 c 0
 -162 485 -159 492 -156 495 c 0
 -150 500 -124 504 -92 504 c 0
 -57 504 -46 509 -46 524 c 0
 -46 533 -50 567 -69 574 c 0
 -82 579 -136 585 -246 585 c 0
 -246 585 -253 585 -263 574 c 0
 -271 565 -274 557 -274 542 c 0
 -274 542 -274 538 -273 535 c 1
 -312 605 -323 627 -323 636 c 0
 -323 636 -323 633 -321 635 c 0
 -316 640 -273 643 -89 643 c 0
 18 643 44 644 168 644 c 0
 292 644 311 643 324 630 c 0
 332 622 333 614 333 552 c 0
 333 428 329 404 307 404 c 0
 302 404 249 405 249 442 c 0
 249 465 269 516 269 553 c 0
 269 582 257 585 140 585 c 0
 44 585 39 583 39 560 c 0
 39 550 40 546 40 536 c 2
 40 502 l 1
 94 502 l 2
 135 502 145 499 158 483 c 0
 163 477 166 473 166 469 c 0
 166 457 146 399 118 399 c 0
 102 399 76 419 54 419 c 0
 34 419 34 403 34 403 c 0
 34 387 33 381 33 374 c 0
 33 350 43 346 101 346 c 2
 129 346 l 2
 200 346 220 341 225 321 c 1
 225 317 l 2
 225 309 223 260 172 260 c 0
 147 260 108 272 71 272 c 2
 34 272 l 1
 34 136 l 2
 34 25 31 -22 -7 -22 c 0
 -38 -22 -38 8 -38 42 c 2
 -38 71 l 1
 -38 52 -160 36 -333 36 c 1
EndSplineSet
Validated: 5
EndChar

StartChar: nine
Encoding: 57 57 15
Width: 0
VWidth: 895
Flags: HMW
LayerCount: 2
Back
Fore
SplineSet
-342 574 m 1
 -332 584 -321 631 -311 641 c 1
 0 641 l 2
 282 641 307 640 323 626 c 0
 331 618 332 611 332 540 c 0
 332 416 329 401 301 401 c 0
 272 401 246 417 246 432 c 0
 246 446 268 506 268 543 c 0
 268 557 265 566 262 569 c 0
 255 575 214 579 177 579 c 0
 151 579 142 577 139 574 c 0
 131 566 127 506 127 417 c 2
 127 322 l 1
 175 322 l 2
 222 322 237 340 275 340 c 0
 304 340 342 329 342 311 c 0
 342 304 337 296 334 292 c 0
 318 269 316 246 316 90 c 0
 316 -21 315 -34 273 -34 c 0
 261 -34 254 -33 246 -28 c 2
 235 -17 l 1
 235 112 l 2
 235 153 238 168 238 202 c 0
 238 246 233 256 218 256 c 0
 213 256 209 257 197 257 c 0
 197 257 192 257 183 256 c 0
 102 245 127 195 105 181 c 0
 102 179 97 178 94 178 c 0
 85 178 74 184 72 188 c 0
 59 209 51 566 43 574 c 0
 41 576 17 579 0 579 c 0
 -17 579 -29 576 -31 574 c 0
 -39 565 -50 208 -61 188 c 0
 -63 184 -74 178 -82 178 c 0
 -95 178 -107 192 -114 218 c 0
 -118 232 -122 238 -137 244 c 0
 -154 251 -182 256 -210 256 c 0
 -210 256 -218 256 -219 254 c 0
 -221 250 -223 212 -223 136 c 2
 -223 70 l 2
 -223 -18 -225 -34 -251 -34 c 0
 -269 -34 -302 -26 -302 159 c 0
 -302 223 -306 276 -327 299 c 0
 -331 303 -334 308 -334 312 c 0
 -334 324 -307 338 -275 338 c 0
 -243 338 -218 324 -153 324 c 0
 -129 324 -115 326 -113 329 c 2
 -113 344 l 2
 -113 427 -123 569 -129 575 c 0
 -131 577 -156 579 -184 579 c 2
 -190 579 l 2
 -234 579 -275 579 -275 537 c 0
 -275 506 -252 450 -252 434 c 0
 -252 417 -280 403 -308 403 c 0
 -338 403 -339 419 -339 515 c 1
 -342 574 l 1
EndSplineSet
Validated: 1
EndChar

StartChar: A
Encoding: 65 65 16
Width: 0
VWidth: 890
Flags: HMW
LayerCount: 2
Back
Fore
SplineSet
-228 466 m 0
 -228 498 -216 500 -154 500 c 0
 -78 500 -47 497 6 497 c 2
 219 497 l 1
 231 481 l 2
 239 471 240 467 240 461 c 0
 240 448 236 411 194 411 c 0
 168 411 96 425 79 425 c 2
 76 425 l 2
 54 425 47 418 47 401 c 0
 47 394 48 389 48 381 c 0
 48 369 50 350 53 346 c 0
 57 339 84 336 130 336 c 0
 209 336 233 327 233 302 c 0
 233 293 230 284 227 276 c 0
 219 253 218 230 218 175 c 2
 218 131 l 2
 218 60 214 48 193 48 c 0
 166 48 119 68 114 83 c 0
 113 85 114 85 114 88 c 0
 114 109 159 153 159 207 c 0
 159 231 150 248 133 258 c 0
 117 267 97 269 -21 269 c 2
 -30 269 l 2
 -143 269 -160 265 -160 242 c 0
 -160 216 -137 143 -137 109 c 0
 -137 74 -161 45 -187 45 c 0
 -195 45 -201 48 -206 51 c 0
 -223 60 -223 67 -223 203 c 2
 -223 219 l 2
 -223 330 -219 336 -142 336 c 2
 -45 336 l 1
 -36 357 l 2
 -31 371 -28 388 -28 404 c 0
 -28 414 -29 423 -32 425 c 0
 -34 426 -37 425 -44 425 c 0
 -70 425 -167 411 -193 411 c 0
 -200 411 -203 410 -207 411 c 0
 -219 416 -228 438 -228 466 c 0
-284 384 m 0
 -284 140 -278 36 -261 10 c 0
 -248 -10 -209 -13 30 -13 c 2
 260 -13 l 1
 271 0 l 2
 285 18 288 53 288 163 c 2
 288 192 l 2
 288 335 280 472 273 504 c 0
 269 521 259 535 249 541 c 0
 234 551 201 553 -31 553 c 2
 -57 553 l 2
 -220 553 -255 553 -266 550 c 0
 -282 546 -284 525 -284 384 c 0
-346 -55 m 1
 -346 269 l 2
 -346 555 -345 595 -334 607 c 0
 -326 616 -304 617 -12 617 c 0
 280 617 324 616 337 605 c 0
 342 600 346 589 346 237 c 0
 346 -12 344 -53 334 -65 c 0
 329 -71 318 -74 -55 -74 c 0
 -270 -74 -320 -73 -332 -65 c 2
 -346 -55 l 1
EndSplineSet
Validated: 1
EndChar

StartChar: B
Encoding: 66 66 17
Width: 0
VWidth: 885
Flags: HMW
LayerCount: 2
Back
Fore
SplineSet
-153 7 m 0
 -154 7 -153 14 -153 28 c 1
 -152 28 -152 28 -150 26 c 1
 -150 62 -142 129 -138 129 c 2
 -138 129 -137 129 -136 125 c 0
 -124 87 -74 84 -63 84 c 0
 -45 84 -40 91 -40 111 c 0
 -40 127 -43 135 -43 155 c 2
 -43 163 l 2
 -43 173 -43 206 -18 206 c 0
 -1 206 54 190 54 167 c 0
 54 151 28 113 28 100 c 0
 28 89 46 83 77 83 c 0
 90 83 100 84 115 84 c 0
 155 84 159 91 159 163 c 2
 159 175 l 2
 159 360 148 393 77 393 c 2
 43 393 l 1
 43 350 l 2
 43 340 45 334 45 321 c 0
 45 294 37 282 18 282 c 0
 -4 282 -54 297 -54 316 c 0
 -54 330 -30 360 -30 396 c 0
 -30 396 -30 396 -72 396 c 0
 -114 396 -127 396 -131 393 c 0
 -144 382 -153 244 -153 33 c 2
 -153 28 l 1
 -176 28 -190 31 -198 36 c 2
 -210 44 l 1
 -210 238 l 2
 -210 413 -208 435 -200 444 c 0
 -192 453 -176 453 -176 453 c 0
 178 453 199 451 208 443 c 0
 217 435 217 420 217 243 c 0
 217 66 217 43 210 36 c 0
 201 27 153 26 -71 26 c 2
 -150 26 l 1
 -150 18 -151 7 -153 7 c 0
-267 208 m 0
 -267 109 -259 26 -247 0 c 0
 -236 -23 -210 -25 40 -25 c 2
 57 -25 l 2
 201 -25 241 -24 250 -17 c 0
 264 -8 267 48 267 116 c 0
 267 226 259 316 259 392 c 0
 259 463 252 488 227 495 c 0
 201 503 114 505 -85 505 c 0
 -226 505 -238 504 -251 494 c 2
 -265 483 l 1
 -265 313 l 2
 -265 274 -267 257 -267 208 c 0
-325 -48 m 0
 -325 485 -324 537 -316 549 c 2
 -307 562 l 1
 -4 562 l 2
 213 562 305 559 316 551 c 0
 324 545 325 513 325 106 c 2
 325 87 l 2
 325 -46 324 -55 314 -68 c 2
 302 -83 l 1
 0 -83 l 2
 -287 -83 -302 -82 -314 -70 c 0
 -325 -59 -325 -48 -325 -48 c 0
EndSplineSet
Validated: 5
EndChar

StartChar: C
Encoding: 67 67 18
Width: 0
VWidth: 892
Flags: HMW
LayerCount: 2
Back
Fore
SplineSet
-43 144 m 1
 -43 213 -34 326 -28 334 c 0
 -25 337 -9 341 6 341 c 0
 31 341 55 331 55 297 c 0
 55 263 31 235 14 235 c 0
 10 235 6 237 6 240 c 2
 6 240 4 251 -9 255 c 0
 -11 256 -12 256 -14 256 c 0
 -35 256 -43 209 -43 144 c 1
-229 465 m 0
 -229 494 -227 503 -224 505 c 0
 -216 509 -104 513 64 513 c 0
 183 513 206 511 217 501 c 0
 226 493 228 480 228 398 c 0
 228 316 226 280 219 273 c 0
 216 270 204 267 187 267 c 0
 143 267 143 287 143 287 c 0
 143 327 166 386 166 412 c 0
 166 423 162 429 150 439 c 0
 136 449 129 451 50 451 c 0
 -76 451 -121 446 -144 428 c 0
 -154 421 -156 415 -156 358 c 2
 -156 349 l 2
 -156 236 -138 141 -116 133 c 0
 -107 130 -67 129 -18 129 c 0
 68 129 145 132 168 137 c 2
 211 144 l 1
 225 126 l 2
 235 113 241 103 241 87 c 0
 241 52 212 52 87 52 c 2
 54 52 l 2
 -126 52 -204 55 -212 63 c 0
 -220 71 -224 144 -224 229 c 0
 -224 323 -229 420 -229 465 c 0
-290 365 m 0
 -290 221 -284 111 -275 51 c 0
 -270 19 -266 11 -248 6 c 0
 -219 -1 -134 -5 24 -5 c 0
 182 -5 260 -1 274 6 c 0
 287 13 290 45 290 171 c 0
 290 364 283 496 272 525 c 0
 268 536 258 547 249 553 c 0
 231 565 195 567 -27 567 c 2
 -44 567 l 2
 -183 567 -259 565 -268 561 c 0
 -271 559 -279 550 -281 544 c 0
 -287 531 -290 467 -290 365 c 0
-351 282 m 0
 -351 602 -351 606 -341 616 c 0
 -332 625 -324 630 -24 630 c 0
 208 630 327 627 340 618 c 0
 350 611 351 570 351 282 c 0
 351 -6 350 -47 341 -54 c 0
 328 -63 207 -67 -100 -67 c 0
 -317 -67 -328 -65 -342 -51 c 0
 -351 -42 -351 -38 -351 282 c 0
EndSplineSet
Validated: 1
EndChar

StartChar: D
Encoding: 68 68 19
Width: 0
VWidth: 896
Flags: HMW
LayerCount: 2
Back
Fore
SplineSet
-288 358 m 0
 -288 195 -279 91 -268 61 c 0
 -256 25 -218 24 17 24 c 2
 264 24 l 1
 275 41 l 2
 286 59 289 95 289 229 c 2
 289 248 l 2
 289 405 282 529 273 556 c 0
 269 566 258 580 251 583 c 0
 237 591 153 596 27 596 c 0
 -71 596 -150 593 -228 593 c 1
 -228 568 -222 531 -217 531 c 0
 -217 531 l 0
 -215 532 -212 537 -208 542 c 1
 3 542 l 2
 203 542 214 542 226 530 c 0
 231 524 233 519 233 516 c 0
 233 509 221 460 221 181 c 0
 221 101 220 83 189 83 c 0
 163 83 132 96 119 112 c 0
 116 116 114 120 114 139 c 0
 114 228 160 272 160 376 c 2
 160 389 l 2
 160 447 155 460 122 469 c 0
 96 476 53 480 -7 480 c 0
 -86 480 -145 473 -154 464 c 0
 -159 459 -162 443 -162 423 c 0
 -162 378 -146 376 -120 376 c 0
 -72 376 -20 383 29 383 c 0
 29 383 53 383 53 359 c 0
 53 339 35 280 9 280 c 0
 -1 280 -19 289 -26 289 c 0
 -27 289 l 2
 -29 287 -31 252 -31 221 c 2
 -31 157 l 1
 0 153 l 2
 31 153 56 139 56 119 c 0
 56 112 53 104 49 99 c 0
 40 87 25 86 -55 86 c 0
 -169 86 -209 88 -216 95 c 0
 -219 98 -221 106 -221 110 c 0
 -221 120 -210 189 -175 189 c 0
 -156 189 -136 170 -122 170 c 1
 -122 170 -106 170 -106 192 c 0
 -106 201 -109 214 -109 234 c 0
 -109 272 -120 306 -133 306 c 0
 -141 306 -148 294 -185 294 c 2
 -189 294 l 2
 -215 294 -228 387 -228 583 c 2
 -228 593 l 1
 -265 593 -271 591 -275 582 c 0
 -284 560 -288 467 -288 358 c 0
-351 375 m 0
 -351 621 -350 636 -335 651 c 0
 -327 659 -323 659 3 659 c 2
 332 659 l 1
 342 645 l 2
 350 633 351 583 351 400 c 0
 351 -9 346 -18 338 -26 c 0
 327 -37 317 -38 154 -38 c 0
 -210 -38 -327 -33 -339 -25 c 0
 -349 -18 -351 28 -351 375 c 0
EndSplineSet
Validated: 5
EndChar

StartChar: E
Encoding: 69 69 20
Width: 0
VWidth: 889
Flags: HMW
LayerCount: 2
Back
Fore
SplineSet
-153 141 m 1
 -145 117 -135 103 -121 100 c 0
 -107 96 -47 93 34 93 c 2
 48 93 l 2
 163 93 169 98 169 178 c 2
 169 186 l 2
 169 283 156 380 138 405 c 0
 125 424 92 429 -10 429 c 0
 -89 429 -144 426 -153 420 c 1
 -153 141 l 1
-172 168 m 0
 -172 168 -172 152 -170 141 c 1
 -170 317 l 1
 -170 277 -172 227 -172 168 c 0
-232 250 m 0
 -232 437 -230 474 -221 483 c 0
 -213 491 -189 491 -189 491 c 0
 194 491 211 490 220 480 c 0
 228 471 230 455 230 379 c 0
 230 325 229 292 229 188 c 0
 229 84 228 41 221 37 c 0
 213 32 100 29 -50 29 c 0
 -200 29 -215 32 -222 39 c 0
 -230 47 -232 63 -232 250 c 0
-289 344 m 0
 -289 198 -285 81 -278 34 c 0
 -273 3 -265 -11 -247 -16 c 0
 -222 -23 -133 -26 23 -26 c 2
 256 -26 l 1
 266 -16 275 -6 285 4 c 1
 285 206 l 2
 285 414 278 508 261 525 c 0
 256 530 239 538 228 540 c 0
 209 544 125 546 -3 546 c 0
 -159 546 -259 543 -270 539 c 0
 -275 537 -282 525 -284 519 c 0
 -287 507 -289 447 -289 344 c 0
-348 321 m 0
 -348 541 -347 590 -339 598 c 0
 -331 606 -277 609 310 609 c 0
 310 609 322 609 334 597 c 0
 347 584 348 569 348 260 c 0
 348 -49 347 -64 334 -77 c 0
 328 -83 320 -88 -98 -88 c 0
 -285 -88 -327 -87 -339 -77 c 0
 -345 -72 -348 -60 -348 321 c 0
EndSplineSet
Validated: 1
EndChar

StartChar: F
Encoding: 70 70 21
Width: 0
VWidth: 892
Flags: HMW
LayerCount: 2
Back
Fore
SplineSet
-231 90 m 0
 -231 104 -225 117 -216 127 c 2
 -202 144 l 1
 -162 137 l 2
 -136 132 -70 127 4 127 c 0
 71 127 117 131 125 139 c 0
 139 151 159 270 159 354 c 0
 159 396 154 421 142 432 c 0
 126 446 80 451 -49 451 c 0
 -149 451 -162 448 -162 422 c 0
 -162 415 -161 412 -161 403 c 0
 -161 378 -153 359 -150 355 c 0
 -145 349 -120 347 -61 347 c 0
 31 347 52 342 52 319 c 0
 52 294 28 237 12 237 c 0
 -2 237 -60 277 -121 277 c 0
 -151 277 -167 267 -175 267 c 0
 -200 267 -206 152 -223 152 c 1
 -226 157 -231 275 -231 351 c 0
 -231 435 -225 496 -217 505 c 0
 -211 512 -187 513 4 513 c 2
 219 513 l 1
 229 498 l 2
 234 490 236 486 236 481 c 0
 236 478 235 474 234 472 c 0
 223 445 219 383 219 255 c 2
 219 67 l 1
 200 59 l 2
 188 53 126 51 -29 51 c 0
 -184 51 -209 53 -221 63 c 0
 -227 69 -231 79 -231 90 c 0
-290 359 m 0
 -290 183 -281 63 -269 25 c 0
 -261 -2 -246 -3 -128 -3 c 0
 38 -3 69 -5 158 -5 c 0
 247 -5 257 -3 271 8 c 2
 285 22 l 1
 285 260 l 2
 285 494 281 533 255 551 c 0
 236 564 207 566 -29 566 c 2
 -52 566 l 2
 -181 566 -253 565 -261 563 c 0
 -267 562 -277 553 -280 545 c 0
 -287 529 -290 461 -290 359 c 0
-348 -47 m 1
 -348 280 l 2
 -348 568 -346 608 -334 622 c 0
 -327 630 -318 630 -318 630 c 0
 320 630 324 629 333 620 c 0
 342 611 348 602 348 172 c 0
 348 -3 347 -44 336 -56 c 0
 328 -65 308 -67 49 -67 c 0
 -268 -67 -321 -64 -334 -56 c 2
 -348 -47 l 1
EndSplineSet
Validated: 1
EndChar

StartChar: G
Encoding: 71 71 22
Width: 0
VWidth: 890
Flags: HMW
LayerCount: 2
Back
Fore
SplineSet
-164 38 m 2
 -164 50 l 2
 -164 54 -164 56 -153 63 c 1
 -156 40 -158 30 -160 30 c 0
 -161 30 -163 34 -164 38 c 2
-231 168 m 0
 -231 483 -209 504 29 504 c 0
 102 504 209 502 221 496 c 0
 226 493 231 481 231 469 c 0
 231 443 208 416 177 416 c 0
 146 416 97 443 75 443 c 0
 71 443 66 442 63 439 c 0
 56 432 51 396 51 360 c 0
 51 344 52 331 54 328 c 0
 57 323 77 320 120 320 c 0
 175 320 187 315 187 291 c 0
 187 261 168 219 153 213 c 2
 153 213 152 212 148 212 c 0
 130 212 88 239 68 239 c 0
 63 239 62 241 55 240 c 0
 43 238 41 232 41 207 c 0
 41 189 40 184 40 176 c 0
 40 130 69 141 69 112 c 0
 69 87 48 32 26 32 c 0
 21 32 12 35 5 40 c 0
 -15 54 -84 73 -116 73 c 0
 -129 73 -142 70 -153 63 c 1
 -148 99 -143 150 -137 150 c 1
 -129 142 -129 142 -83 142 c 2
 -34 142 l 1
 -34 194 l 2
 -34 431 -45 443 -100 443 c 2
 -101 443 l 2
 -149 443 -166 431 -166 380 c 0
 -166 362 -164 94 -164 55 c 1
 -175 47 -186 43 -196 43 c 0
 -206 43 -215 47 -220 55 c 0
 -230 69 -231 101 -231 168 c 0
-286 440 m 0
 -286 377 -285 334 -285 231 c 0
 -285 53 -282 12 -258 -0 c 0
 -235 -12 -146 -19 35 -19 c 0
 153 -19 251 -16 266 -13 c 0
 284 -10 286 10 286 146 c 2
 286 180 l 2
 286 356 280 482 272 513 c 0
 268 530 258 541 243 545 c 0
 219 550 119 553 -69 553 c 0
 -177 553 -244 552 -255 550 c 0
 -262 548 -273 540 -278 532 c 0
 -285 521 -286 503 -286 440 c 0
-348 356 m 0
 -348 539 -347 590 -339 602 c 2
 -329 616 l 1
 0 616 l 2
 288 616 326 615 338 604 c 0
 347 596 348 574 348 280 c 0
 348 -14 347 -58 336 -70 c 0
 328 -79 305 -81 -54 -81 c 0
 -308 -81 -324 -80 -337 -67 c 0
 -343 -61 -348 -52 -348 356 c 0
EndSplineSet
Validated: 1
EndChar

StartChar: H
Encoding: 72 72 23
Width: 0
VWidth: 897
Flags: HMW
LayerCount: 2
Back
Fore
SplineSet
138 152 m 1
 138 330 l 1
 153 317 l 2
 161 309 163 307 163 294 c 0
 163 269 171 234 171 208 c 1
 168 209 166 209 166 209 c 0
 148 209 138 177 138 152 c 1
-51 350 m 0
 -51 377 14 382 23 382 c 0
 36 382 64 371 67 363 c 0
 68 361 68 358 68 358 c 0
 68 303 61 177 57 143 c 0
 53 102 42 88 15 88 c 0
 -2 88 -9 94 -9 94 c 1
 -9 237 -18 303 -41 327 c 0
 -47 334 -51 343 -51 350 c 0
-231 510 m 0
 -231 523 -225 539 -221 542 c 0
 -213 547 -133 549 5 549 c 2
 142 549 l 1
 142 529 138 505 138 485 c 1
 131 487 119 487 119 487 c 0
 -139 487 -156 483 -156 414 c 0
 -156 397 -155 386 -155 363 c 0
 -155 209 -110 156 -110 133 c 0
 -110 108 -159 94 -183 94 c 0
 -196 94 -207 98 -210 103 c 0
 -215 112 -218 171 -218 298 c 0
 -218 425 -221 489 -227 492 c 0
 -229 493 -231 502 -231 510 c 0
-285 432 m 0
 -285 236 -275 96 -266 62 c 0
 -259 35 -243 35 -117 35 c 2
 8 35 l 2
 264 35 268 35 273 42 c 0
 284 57 286 90 286 259 c 2
 286 271 l 2
 286 535 282 567 256 587 c 0
 236 602 213 603 -24 603 c 2
 -45 603 l 2
 -184 603 -255 600 -263 597 c 0
 -267 595 -276 584 -278 578 c 0
 -283 566 -285 519 -285 432 c 0
-348 318 m 0
 -348 626 -347 642 -334 655 c 0
 -322 667 -310 667 -310 667 c 0
 277 667 331 665 340 656 c 0
 348 648 348 613 348 613 c 0
 348 20 347 -8 336 -21 c 0
 329 -29 320 -30 -0 -30 c 0
 -320 -30 -324 -29 -331 -22 c 0
 -347 -6 -348 10 -348 318 c 0
147 549 m 1
 142 549 l 1
 142 564 142 577 143 577 c 0
 145 577 147 561 147 549 c 1
147 549 m 1
 219 549 l 1
 225 533 l 2
 228 523 231 476 231 416 c 0
 231 356 228 320 224 312 c 0
 221 306 210 302 196 302 c 0
 184 302 172 305 163 310 c 1
 163 338 157 368 157 396 c 1
 155 392 153 383 147 365 c 2
 138 337 l 1
 138 485 l 1
 147 483 152 478 152 464 c 0
 152 450 157 423 157 409 c 0
 157 403 158 402 158 401 c 1
 161 416 163 431 163 445 c 0
 163 465 159 472 152 479 c 1
 152 502 147 526 147 549 c 1
171 208 m 1
 180 204 206 180 218 180 c 0
 226 180 230 167 230 151 c 0
 230 138 227 106 207 106 c 0
 183 106 171 149 171 208 c 1
EndSplineSet
Validated: 5
EndChar

StartChar: I
Encoding: 73 73 24
Width: 0
VWidth: 892
Flags: HMW
LayerCount: 2
Back
Fore
SplineSet
-225 269 m 0
 -225 420 -221 494 -213 504 c 0
 -207 512 -178 513 -48 513 c 0
 136 513 217 511 228 505 c 0
 233 502 237 492 237 480 c 0
 237 448 211 426 173 426 c 0
 132 426 101 452 86 452 c 0
 79 452 75 446 72 429 c 0
 67 406 60 347 60 332 c 0
 60 313 70 309 103 309 c 0
 150 309 168 301 168 280 c 0
 168 275 167 271 166 268 c 0
 159 228 140 205 115 205 c 0
 108 205 101 207 101 211 c 0
 101 222 46 240 5 240 c 0
 -30 240 -53 253 -53 273 c 0
 -53 289 -39 309 -29 309 c 0
 -21 309 -16 323 -16 350 c 0
 -16 386 -25 425 -36 437 c 0
 -44 446 -65 452 -94 452 c 0
 -117 452 -136 448 -147 440 c 0
 -155 435 -157 429 -157 407 c 0
 -157 358 -147 329 -147 270 c 0
 -147 208 -136 181 -136 131 c 0
 -136 85 -145 68 -169 58 c 0
 -175 55 -183 52 -191 52 c 0
 -205 52 -219 61 -221 71 c 0
 -224 85 -225 193 -225 269 c 0
-283 321 m 2
 -283 88 -278 29 -252 10 c 0
 -233 -3 -190 -5 61 -5 c 2
 149 -5 l 2
 282 -5 287 -4 287 51 c 0
 287 100 291 130 291 219 c 0
 291 328 285 484 278 518 c 0
 273 539 259 555 239 559 c 0
 214 565 107 568 -115 568 c 0
 -243 568 -255 567 -269 556 c 2
 -283 545 l 1
 -283 321 l 2
-349 282 m 0
 -349 591 -348 606 -333 621 c 0
 -325 629 -320 630 318 630 c 0
 318 630 327 630 334 622 c 0
 346 608 348 574 348 384 c 0
 348 249 349 207 349 123 c 0
 349 -22 346 -44 337 -55 c 0
 327 -66 308 -67 -0 -67 c 0
 -308 -67 -324 -66 -336 -54 c 0
 -348 -42 -349 -27 -349 282 c 0
EndSplineSet
Validated: 1
EndChar

StartChar: J
Encoding: 74 74 25
Width: 0
VWidth: 898
Flags: HMW
LayerCount: 2
Back
Fore
SplineSet
-287 392 m 2
 -287 87 -277 62 -241 49 c 1
 -241 393 -239 534 -232 543 c 2
 -223 556 l 1
 -8 556 l 2
 203 556 207 556 214 543 c 0
 217 536 220 528 220 519 c 0
 220 493 195 470 161 470 c 0
 127 470 89 492 70 492 c 0
 57 492 53 481 44 405 c 1
 44 374 l 1
 71 370 l 2
 85 370 105 364 112 358 c 0
 118 354 122 345 122 332 c 0
 122 300 98 260 78 260 c 0
 71 260 61 265 54 271 c 0
 38 286 -2 298 -29 298 c 0
 -61 298 -88 314 -88 334 c 0
 -88 348 -75 360 -55 367 c 2
 -27 374 l 1
 -27 419 l 2
 -27 443 -30 461 -35 473 c 2
 -44 495 l 1
 -95 495 l 2
 -172 495 -174 495 -174 433 c 0
 -174 300 -165 191 -151 181 c 0
 -143 175 -89 171 -14 171 c 0
 127 171 187 185 197 185 c 0
 211 185 232 161 232 135 c 0
 232 123 228 114 217 103 c 0
 209 95 206 95 -3 95 c 0
 -212 95 -218 95 -221 97 c 0
 -223 98 -224 99 -226 99 c 0
 -236 99 -239 74 -239 49 c 1
 -208 41 -128 39 110 39 c 2
 128 39 l 2
 247 39 258 40 270 49 c 2
 285 62 l 1
 285 277 l 2
 285 534 280 581 251 597 c 0
 231 608 187 610 -32 610 c 2
 -56 610 l 2
 -195 610 -253 609 -266 607 c 0
 -285 603 -287 581 -287 409 c 2
 -287 392 l 2
-347 263 m 2
 -347 290 l 2
 -347 622 -346 659 -340 663 c 0
 -331 670 -219 674 -22 674 c 0
 199 674 329 669 340 661 c 0
 347 656 347 622 347 324 c 0
 347 26 347 -5 340 -10 c 0
 329 -18 200 -23 -20 -23 c 0
 -217 -23 -331 -19 -340 -12 c 0
 -346 -8 -347 22 -347 263 c 2
EndSplineSet
Validated: 1
EndChar

StartChar: K
Encoding: 75 75 26
Width: 0
VWidth: 903
Flags: HMW
LayerCount: 2
Back
Fore
SplineSet
-77 291 m 0
 -77 225 -73 185 -68 180 c 0
 -64 176 -38 173 4 173 c 2
 70 173 l 1
 79 193 l 2
 83 204 86 228 86 247 c 2
 86 280 l 1
 40 280 l 2
 25 280 -22 280 -22 313 c 0
 -22 328 -12 346 5 362 c 2
 22 377 l 1
 50 364 l 2
 70 356 76 353 82 353 c 0
 92 353 96 363 96 392 c 2
 96 399 l 2
 96 441 92 465 86 469 c 0
 81 472 54 474 19 474 c 0
 -16 474 -46 472 -51 469 c 0
 -55 466 -64 448 -68 430 c 0
 -74 405 -77 348 -77 291 c 0
-236 128 m 0
 -236 137 -234 141 -226 162 c 0
 -217 185 -214 188 -172 188 c 2
 -147 188 l 1
 -147 460 l 1
 -175 460 l 2
 -182 460 -184 457 -192 457 c 0
 -224 457 -232 504 -232 514 c 0
 -232 522 -227 537 -223 540 c 0
 -214 547 -143 549 12 549 c 2
 21 549 l 2
 223 549 238 547 238 524 c 0
 238 518 237 515 237 515 c 2
 232 474 219 457 198 457 c 0
 193 457 191 458 189 458 c 0
 181 460 168 459 165 457 c 0
 160 454 159 429 159 358 c 2
 159 188 l 1
 187 188 l 2
 219 188 236 176 236 143 c 0
 236 132 238 130 238 122 c 0
 238 101 222 99 18 99 c 2
 -218 99 l 1
 -228 115 l 2
 -236 127 -236 128 -236 128 c 0
-289 420 m 0
 -289 369 -288 354 -288 279 c 0
 -288 110 -283 74 -255 53 c 0
 -236 39 -215 39 -215 39 c 0
 47 39 83 38 149 38 c 0
 242 38 257 40 269 49 c 2
 283 61 l 1
 283 297 l 2
 283 549 281 581 259 592 c 0
 236 604 158 608 -14 608 c 0
 -163 608 -262 605 -270 602 c 0
 -273 600 -281 589 -283 584 c 0
 -286 573 -289 509 -289 420 c 0
-348 661 m 2
 -348 735 l 1
 -345 735 -340 667 -332 667 c 0
 -331 668 l 0
 -326 672 -288 672 -288 672 c 0
 309 672 325 671 340 656 c 0
 348 648 348 644 348 324 c 0
 348 4 348 0 336 -12 c 0
 324 -24 320 -24 -0 -24 c 0
 -320 -24 -328 -24 -331 -21 c 0
 -344 -7 -348 142 -348 661 c 2
EndSplineSet
Validated: 1
EndChar

StartChar: L
Encoding: 76 76 27
Width: 0
VWidth: 905
Flags: HMW
LayerCount: 2
Back
Fore
SplineSet
79 150 m 0
 79 154 101 157 138 157 c 0
 169 157 186 159 186 163 c 0
 186 165 189 168 192 168 c 0
 196 168 199 162 198 157 c 0
 196 148 184 146 130 146 c 2
 123 146 l 2
 91 146 79 147 79 150 c 0
26 205 m 1
 56 205 l 2
 95 205 126 218 133 239 c 0
 136 249 142 284 142 295 c 0
 142 300 143 301 142 303 c 0
 140 308 123 310 80 310 c 0
 28 310 26 307 26 245 c 2
 26 205 l 1
-227 551 m 0
 -227 556 -220 558 -210 558 c 0
 -196 558 -192 554 -192 546 c 0
 -192 538 -188 535 -182 535 c 0
 -171 535 -159 547 -159 553 c 0
 -159 562 -192 583 -192 589 c 0
 -192 592 -187 593 -182 593 c 0
 -173 593 -168 590 -168 587 c 0
 -168 584 -163 581 -155 581 c 0
 -149 581 -145 583 -145 585 c 0
 -145 592 -51 593 27 593 c 0
 183 593 186 589 186 585 c 0
 186 576 198 573 198 566 c 0
 198 559 186 563 186 548 c 0
 186 539 190 535 197 535 c 0
 210 535 215 523 215 503 c 0
 215 490 213 484 209 484 c 0
 203 484 198 494 198 505 c 0
 198 514 195 523 192 523 c 0
 189 523 186 515 186 505 c 0
 186 496 188 487 191 487 c 0
 195 487 198 470 198 446 c 0
 198 422 195 404 192 404 c 0
 189 404 186 383 186 352 c 0
 186 321 189 298 192 298 c 0
 195 298 198 322 198 366 c 0
 198 389 199 402 203 402 c 0
 205 402 l 0
 208 400 215 393 215 314 c 2
 215 302 l 2
 215 265 213 256 207 253 c 0
 200 250 198 239 198 220 c 0
 198 184 191 180 137 180 c 0
 91 180 68 183 68 188 c 0
 68 191 63 192 58 192 c 0
 50 192 45 189 45 186 c 0
 45 183 37 180 27 180 c 0
 18 180 9 182 9 185 c 0
 9 188 -5 192 -22 192 c 0
 -42 192 -46 197 -46 217 c 0
 -46 241 -40 292 -40 322 c 0
 -40 370 -55 402 -55 419 c 0
 -55 424 -54 426 -54 426 c 0
 -50 438 -19 449 6 449 c 0
 7 449 8 449 9 449 c 0
 12 449 15 450 20 450 c 0
 30 450 37 445 44 433 c 0
 58 407 87 390 119 390 c 2
 153 390 l 1
 153 448 l 2
 153 472 155 482 155 489 c 0
 155 512 132 533 0 534 c 0
 -5 534 -8 534 -12 534 c 0
 -81 534 -133 529 -146 511 c 0
 -153 501 -157 475 -157 433 c 0
 -157 433 -157 305 -118 221 c 0
 -113 209 -110 200 -110 196 c 0
 -110 192 -113 189 -117 189 c 0
 -120 189 -123 190 -126 191 c 0
 -138 193 -145 191 -145 187 c 0
 -145 184 -150 180 -156 180 c 0
 -162 180 -168 183 -168 186 c 0
 -168 189 -177 192 -189 192 c 0
 -202 192 -211 196 -213 200 c 0
 -217 212 -223 382 -223 450 c 0
 -223 529 -215 521 -215 534 c 0
 -215 542 -218 546 -222 546 c 0
 -225 546 -227 548 -227 551 c 0
-274 467 m 0
 -274 205 -269 136 -248 115 c 2
 -233 100 l 1
 -70 100 93 97 256 97 c 1
 265 110 l 2
 273 123 278 204 278 322 c 0
 278 452 272 561 261 603 c 0
 257 619 252 626 241 630 c 0
 218 640 159 642 -20 642 c 2
 -256 642 l 1
 -266 623 l 2
 -273 609 -274 584 -274 467 c 0
-334 422 m 0
 -334 651 -333 679 -322 691 c 0
 -315 699 -306 699 6 699 c 0
 318 699 321 699 323 696 c 0
 331 681 334 569 334 306 c 0
 334 92 332 56 324 46 c 0
 317 37 294 36 0 36 c 0
 -294 36 -317 37 -324 46 c 0
 -332 57 -334 97 -334 422 c 0
EndSplineSet
Validated: 1
EndChar

StartChar: M
Encoding: 77 77 28
Width: 0
VWidth: 889
Flags: HMW
LayerCount: 2
Back
Fore
SplineSet
200 353 m 0
 200 368 202 381 205 381 c 0
 208 381 210 368 210 353 c 0
 210 338 208 323 205 323 c 0
 202 323 200 338 200 353 c 0
190 424 m 0
 190 427 193 429 196 429 c 0
 199 429 200 427 200 424 c 0
 200 421 199 420 196 420 c 0
 193 420 190 421 190 424 c 0
65 77 m 0
 65 80 86 82 112 82 c 0
 138 82 152 84 152 88 c 0
 152 90 154 91 156 91 c 0
 159 91 160 87 160 77 c 0
 160 67 159 62 156 62 c 0
 154 62 152 64 152 66 c 0
 152 70 134 72 108 72 c 0
 82 72 65 74 65 77 c 0
56 404 m 0
 56 418 67 429 110 429 c 0
 149 429 162 420 162 415 c 0
 162 413 161 412 159 411 c 0
 155 409 152 405 152 400 c 0
 152 395 155 391 161 391 c 0
 172 391 181 377 181 360 c 0
 181 350 178 343 174 343 c 0
 169 343 160 359 160 371 c 0
 160 377 158 381 156 381 c 0
 153 381 152 375 152 367 c 0
 152 359 153 353 156 353 c 0
 159 353 160 347 160 325 c 0
 160 295 162 285 173 285 c 0
 181 285 181 280 181 280 c 0
 181 192 183 168 186 168 c 0
 188 168 190 161 190 154 c 0
 190 147 192 141 194 141 c 0
 198 141 200 158 200 204 c 0
 200 250 202 285 205 285 c 0
 208 285 210 251 210 211 c 0
 210 121 200 135 200 110 c 0
 200 102 199 101 193 101 c 0
 182 101 181 104 181 131 c 0
 181 158 180 159 169 159 c 2
 160 159 l 1
 160 252 l 2
 160 282 159 285 157 285 c 0
 154 285 152 292 152 296 c 0
 152 301 148 362 121 362 c 0
 111 362 104 353 93 353 c 0
 72 353 56 387 56 404 c 0
-23 251 m 0
 -23 264 2 275 32 275 c 0
 74 275 74 254 74 254 c 0
 74 228 71 218 71 196 c 0
 71 174 68 156 68 125 c 0
 68 125 68 121 70 119 c 0
 74 116 95 116 95 116 c 0
 140 116 146 117 155 130 c 0
 159 137 160 136 160 128 c 0
 160 105 151 101 105 101 c 0
 73 101 56 103 56 106 c 0
 56 108 50 111 44 111 c 0
 40 111 36 109 36 106 c 0
 36 103 30 101 24 101 c 0
 13 101 3 107 3 115 c 0
 3 121 8 116 8 142 c 0
 8 168 3 211 -4 223 c 0
 -5 225 -9 232 -15 236 c 0
 -20 240 -23 246 -23 251 c 0
-80 77 m 0
 -80 80 -78 82 -75 82 c 0
 -72 82 -71 80 -71 77 c 0
 -71 74 -72 72 -75 72 c 0
 -78 72 -80 74 -80 77 c 0
-157 275 m 0
 -157 369 -156 391 -148 391 c 1
 -148 391 -132 396 -132 405 c 0
 -132 408 -134 411 -137 414 c 0
 -137 414 -140 417 -140 420 c 0
 -140 425 -128 429 -78 429 c 0
 -3 429 -3 420 -3 420 c 0
 -3 387 -19 356 -32 353 c 2
 -36 353 l 2
 -49 353 -68 367 -82 370 c 0
 -89 372 -91 370 -94 370 c 0
 -103 370 -108 358 -108 322 c 0
 -108 300 -106 286 -106 247 c 0
 -106 155 -95 121 -61 121 c 0
 -51 121 -42 118 -42 115 c 0
 -42 112 -47 111 -54 111 c 0
 -63 111 -71 109 -71 106 c 0
 -71 103 -76 101 -84 101 c 0
 -92 101 -99 103 -99 106 c 0
 -99 109 -102 111 -108 111 c 0
 -114 111 -119 109 -119 106 c 0
 -119 103 -123 101 -128 101 c 0
 -133 101 -138 103 -138 106 c 0
 -138 109 -143 111 -149 111 c 0
 -154 111 -157 112 -157 275 c 0
-225 330 m 0
 -225 125 -220 66 -203 48 c 2
 -191 36 l 1
 -58 36 76 33 209 33 c 1
 216 44 l 2
 223 54 227 119 227 211 c 0
 227 323 221 413 207 470 c 0
 205 477 204 478 -17 478 c 2
 -210 478 l 1
 -218 463 l 2
 -224 451 -225 421 -225 330 c 0
-273 531 m 0
 -273 531 -273 541 -272 541 c 0
 -270 541 -267 518 -265 518 c 1
 -265 522 -252 526 218 526 c 0
 218 526 263 526 267 518 c 0
 271 510 273 433 273 239 c 0
 273 45 271 0 263 -12 c 0
 260 -17 255 -17 255 -17 c 0
 -255 -17 -260 -16 -262 -13 c 0
 -271 -1 -273 108 -273 531 c 0
EndSplineSet
Validated: 1
EndChar

StartChar: N
Encoding: 78 78 29
Width: 0
VWidth: 893
Flags: HMW
LayerCount: 2
Back
Fore
SplineSet
87 114 m 0
 87 117 102 119 120 119 c 0
 138 119 149 121 149 125 c 0
 149 127 151 128 152 128 c 0
 156 128 159 122 159 114 c 0
 159 106 156 100 152 100 c 0
 151 100 149 101 149 103 c 0
 149 107 138 109 119 109 c 0
 100 109 87 111 87 114 c 0
-173 145 m 1
 -173 188 l 2
 -173 230 -172 255 -172 300 c 0
 -172 379 -169 419 -164 422 c 0
 -164 422 -164 423 -160 423 c 0
 -156 423 -148 422 -142 422 c 0
 -136 422 -135 423 -134 424 c 0
 -131 428 -72 431 10 431 c 0
 92 431 147 428 150 423 c 0
 151 422 156 421 159 421 c 0
 170 421 177 407 177 389 c 0
 177 380 175 378 167 381 c 0
 164 382 160 383 159 383 c 0
 157 383 159 390 159 397 c 0
 159 405 156 411 153 411 c 0
 150 411 149 405 149 398 c 0
 149 388 151 383 153 383 c 0
 156 383 159 368 159 344 c 0
 159 330 160 317 163 317 c 0
 166 317 168 295 168 256 c 0
 168 217 166 194 162 194 c 0
 160 194 159 185 159 174 c 0
 159 155 156 147 149 143 c 1
 149 177 151 232 154 232 c 0
 156 232 159 251 159 276 c 0
 159 297 157 317 155 317 c 0
 152 317 149 211 149 145 c 2
 149 143 l 1
 144 140 135 137 119 137 c 0
 103 137 99 140 99 142 c 0
 99 147 120 220 120 309 c 2
 120 326 l 2
 120 376 116 378 -31 378 c 2
 -50 378 l 2
 -113 378 -125 372 -125 341 c 0
 -125 326 -122 348 -122 326 c 0
 -122 283 -111 235 -111 198 c 0
 -111 182 -109 172 -109 163 c 0
 -109 139 -123 137 -127 137 c 0
 -131 137 -135 139 -135 141 c 0
 -135 144 -140 145 -153 145 c 2
 -173 145 l 1
-220 339 m 0
 -220 161 -215 103 -198 86 c 2
 -187 74 l 1
 -56 74 74 71 205 71 c 1
 212 82 l 2
 219 91 222 150 222 231 c 0
 222 346 216 440 208 474 c 0
 205 489 201 494 193 497 c 0
 178 504 145 506 -16 506 c 2
 -205 506 l 1
 -212 492 l 2
 -218 480 -220 451 -220 339 c 0
-266 512 m 0
 -266 512 -266 536 -259 544 c 0
 -251 553 -217 553 -217 553 c 0
 253 553 258 551 260 548 c 0
 265 539 266 476 266 274 c 0
 266 72 265 39 258 28 c 0
 254 22 250 22 -0 22 c 0
 -250 22 -254 22 -257 27 c 0
 -265 39 -266 74 -266 512 c 0
EndSplineSet
Validated: 5
EndChar

StartChar: O
Encoding: 79 79 30
Width: 0
VWidth: 885
Flags: HMW
LayerCount: 2
Back
Fore
SplineSet
139 53 m 0
 139 56 142 58 148 58 c 0
 155 58 159 61 159 64 c 0
 159 67 162 68 163 68 c 0
 167 68 170 62 170 54 c 0
 170 46 167 42 159 46 c 0
 156 47 150 48 147 48 c 0
 143 48 139 50 139 53 c 0
-164 225 m 1
 -164 304 l 2
 -164 373 -164 382 -156 382 c 0
 -151 382 -144 386 -140 390 c 0
 -129 401 -150 411 -147 415 c 0
 -144 421 -98 422 18 422 c 0
 134 422 154 421 166 413 c 0
 177 405 159 406 159 392 c 0
 159 386 163 382 170 382 c 0
 182 382 190 368 190 349 c 0
 190 339 188 332 184 332 c 0
 179 332 170 349 170 360 c 0
 170 366 167 372 164 372 c 0
 161 372 159 364 159 356 c 0
 159 348 161 342 163 342 c 0
 167 342 170 328 170 308 c 0
 170 288 167 270 164 270 c 0
 161 270 159 254 159 225 c 0
 159 196 161 180 164 180 c 0
 167 180 170 198 170 242 c 0
 170 267 171 270 180 270 c 0
 189 270 190 267 190 229 c 0
 190 176 192 149 195 148 c 0
 198 147 201 126 201 106 c 0
 201 90 199 79 196 78 c 2
 195 78 l 2
 191 78 190 86 190 106 c 0
 190 135 188 138 180 138 c 0
 171 138 170 134 170 122 c 0
 170 87 162 78 133 78 c 0
 120 78 112 80 112 87 c 0
 112 87 112 90 115 93 c 0
 131 110 153 224 153 304 c 2
 153 310 l 2
 153 366 153 366 -8 366 c 2
 -25 366 l 2
 -86 366 -113 366 -113 335 c 0
 -113 310 -95 279 -95 254 c 0
 -95 223 -121 216 -141 216 c 0
 -141 216 -146 216 -152 219 c 2
 -164 225 l 1
-235 326 m 0
 -235 105 -230 42 -212 23 c 2
 -199 10 l 1
 -60 10 81 7 220 7 c 1
 227 19 l 2
 234 30 238 96 238 195 c 0
 238 281 235 446 205 466 c 0
 197 471 174 473 65 473 c 2
 -220 473 l 1
 -227 458 l 2
 -234 446 -235 425 -235 326 c 0
-286 482 m 0
 -286 482 -286 506 -278 514 c 0
 -270 522 -247 524 250 524 c 0
 250 524 276 524 279 518 c 0
 284 509 286 422 286 214 c 0
 286 6 284 -28 278 -36 c 0
 272 -44 251 -46 -43 -46 c 0
 -251 -46 -271 -45 -277 -38 c 0
 -285 -27 -286 23 -286 482 c 0
EndSplineSet
Validated: 1
EndChar

StartChar: P
Encoding: 80 80 31
Width: 0
VWidth: 896
Flags: HMW
LayerCount: 2
Back
Fore
SplineSet
-159 160 m 1
 -159 307 l 2
 -159 398 -156 454 -153 454 c 0
 -152 454 -148 448 -148 442 c 0
 -148 437 -146 434 -142 434 c 0
 -134 434 -122 443 -122 448 c 0
 -122 454 -136 461 -136 466 c 0
 -136 471 -119 472 -27 472 c 2
 74 472 l 1
 74 488 71 503 71 519 c 1
 71 502 74 489 74 472 c 1
 130 472 148 469 158 460 c 0
 167 453 153 456 153 445 c 0
 153 439 158 434 164 434 c 0
 171 434 181 425 181 415 c 0
 181 402 163 403 163 416 c 0
 163 420 161 424 158 424 c 0
 155 424 153 421 153 415 c 0
 153 407 150 403 143 403 c 0
 130 403 102 416 83 416 c 2
 77 416 l 1
 77 415 80 390 80 356 c 1
 80 377 77 397 77 416 c 1
 64 411 60 377 60 297 c 0
 60 257 59 249 59 228 c 0
 59 187 63 179 78 179 c 0
 85 179 87 181 95 181 c 1
 97 167 100 157 102 149 c 1
 79 149 59 152 59 156 c 0
 59 158 55 160 49 160 c 0
 45 160 40 159 40 156 c 0
 40 153 36 151 26 151 c 0
 8 151 0 158 0 232 c 0
 0 302 -7 392 -16 411 c 0
 -20 418 -27 420 -76 420 c 0
 -76 420 -110 420 -110 403 c 0
 -110 391 -92 248 -92 184 c 0
 -92 162 -94 160 -102 160 c 0
 -107 160 -111 159 -111 156 c 0
 -111 153 -116 149 -120 149 c 0
 -124 149 -130 152 -130 155 c 0
 -130 158 -136 160 -144 160 c 2
 -159 160 l 1
-215 319 m 0
 -215 166 -209 115 -193 99 c 2
 -181 87 l 1
 -50 87 79 84 210 84 c 1
 216 95 l 2
 223 105 227 169 227 255 c 0
 227 361 221 454 211 499 c 0
 208 512 205 519 71 519 c 2
 9 519 l 2
 -171 519 -201 518 -205 514 c 0
 -211 508 -215 444 -215 319 c 0
-272 506 m 0
 -272 583 -269 587 -248 587 c 0
 -234 587 -223 589 -220 589 c 0
 -212 590 -208 582 -205 574 c 2
 -201 566 l 1
 57 566 l 2
 258 566 261 566 263 563 c 0
 269 552 272 474 272 260 c 0
 272 46 269 35 -49 35 c 0
 -215 35 -249 38 -256 47 c 0
 -261 54 -262 75 -262 184 c 0
 -262 339 -264 406 -267 406 c 0
 -270 406 -272 443 -272 506 c 0
122 132 m 1
 141 132 153 134 153 138 c 0
 153 140 155 141 157 141 c 0
 161 141 163 138 163 131 c 0
 163 124 160 122 146 122 c 0
 132 122 126 124 122 132 c 1
122 132 m 1
 115 132 l 2
 109 132 105 137 102 149 c 1
 104 149 l 2
 110 149 113 148 115 146 c 0
 118 142 119 136 122 132 c 1
106 182 m 1
 111 182 l 2
 131 182 134 185 148 185 c 0
 159 185 162 183 163 176 c 2
 163 172 l 2
 163 155 150 149 115 149 c 1
 111 160 109 171 106 182 c 1
106 182 m 1
 105 182 l 2
 91 182 80 287 80 356 c 1
 80 304 93 244 106 182 c 1
EndSplineSet
Validated: 5
EndChar

StartChar: Q
Encoding: 81 81 32
Width: 0
VWidth: 901
Flags: HMW
LayerCount: 2
Back
Fore
SplineSet
62 172 m 0
 62 175 80 177 105 177 c 0
 130 177 145 179 145 183 c 0
 145 185 147 186 148 186 c 0
 152 186 155 180 155 172 c 0
 155 164 152 158 149 158 c 0
 147 158 145 161 145 163 c 0
 145 167 130 168 104 168 c 0
 78 168 62 169 62 172 c 0
-76 172 m 0
 -76 175 -75 177 -72 177 c 0
 -69 177 -67 175 -67 172 c 0
 -67 169 -69 168 -72 168 c 0
 -75 168 -76 169 -76 172 c 0
-94 370 m 0
 -94 370 -94 367 -60 367 c 0
 -32 367 -15 369 -11 374 c 0
 -8 378 0 400 0 414 c 2
 0 449 l 1
 -31 449 l 2
 -70 449 -94 449 -94 370 c 0
-152 206 m 1
 -152 339 l 2
 -152 467 -151 470 -144 472 c 0
 -134 474 -122 483 -122 486 c 0
 -122 498 14 497 21 499 c 0
 22 499 25 499 39 495 c 2
 54 490 l 1
 54 476 l 1
 94 483 140 486 142 486 c 0
 144 486 145 484 145 482 c 0
 145 476 150 473 155 473 c 0
 166 473 173 461 173 442 c 0
 173 432 171 426 168 426 c 0
 163 426 155 441 155 452 c 0
 155 458 153 464 150 464 c 0
 147 464 145 458 145 450 c 0
 145 442 147 436 149 436 c 0
 153 436 155 424 155 405 c 0
 155 386 153 371 150 371 c 0
 147 371 145 354 145 329 c 0
 145 304 147 288 150 288 c 0
 153 288 155 311 155 345 c 0
 155 369 156 371 164 371 c 0
 169 371 173 370 173 319 c 0
 173 294 174 260 178 260 c 0
 180 260 182 254 182 245 c 0
 182 238 183 232 186 232 c 0
 189 232 191 222 191 208 c 0
 191 198 190 196 183 196 c 0
 175 196 173 199 173 228 c 0
 173 248 172 251 164 251 c 0
 156 251 155 248 155 237 c 0
 155 206 147 196 126 196 c 0
 116 196 114 198 120 203 c 0
 134 213 139 232 139 262 c 0
 139 320 120 416 111 432 c 0
 104 445 79 447 54 449 c 1
 54 418 l 2
 54 396 49 381 49 362 c 0
 49 333 60 298 60 287 c 0
 60 260 -1 256 -5 256 c 0
 -17 256 -22 305 -82 305 c 2
 -84 305 l 2
 -103 305 -105 301 -105 253 c 0
 -105 219 -106 207 -112 201 c 0
 -118 195 -132 193 -132 199 c 0
 -132 202 -136 205 -143 206 c 2
 -152 206 l 1
-215 414 m 0
 -215 223 -211 163 -194 145 c 2
 -183 133 l 1
 -55 133 72 130 200 130 c 1
 207 141 l 2
 213 151 217 216 217 301 c 0
 217 405 211 493 197 549 c 0
 196 554 196 555 -16 555 c 2
 -201 555 l 1
 -208 542 l 2
 -214 532 -215 510 -215 414 c 0
-261 348 m 0
 -261 564 -260 586 -254 593 c 0
 -246 601 -213 602 17 602 c 0
 247 602 251 601 253 599 c 0
 259 589 261 512 261 326 c 0
 261 140 259 99 251 87 c 0
 248 82 244 82 -0 82 c 0
 -244 82 -249 82 -252 87 c 0
 -260 98 -261 132 -261 348 c 0
EndSplineSet
Validated: 1
EndChar

StartChar: R
Encoding: 82 82 33
Width: 0
VWidth: 901
Flags: HMW
LayerCount: 2
Back
Fore
SplineSet
128 165 m 0
 128 169 133 171 140 171 c 0
 148 171 152 174 152 178 c 0
 152 180 153 181 156 181 c 0
 160 181 162 179 162 176 c 0
 162 170 154 163 130 163 c 0
 130 163 128 163 128 165 c 0
-176 200 m 1
 -176 350 l 2
 -176 498 -175 500 -169 500 c 0
 -161 500 -157 496 -157 490 c 0
 -157 484 -154 481 -149 481 c 0
 -142 481 -130 489 -130 495 c 0
 -130 502 -147 507 -147 512 c 0
 -147 520 -102 523 -11 523 c 0
 41 523 55 524 91 524 c 0
 141 524 147 522 155 511 c 0
 167 496 152 504 152 493 c 0
 152 486 157 481 162 481 c 0
 170 481 176 471 176 459 c 0
 176 444 167 442 167 442 c 2
 164 442 162 449 162 457 c 0
 162 465 160 471 157 471 c 0
 154 471 152 463 152 454 c 0
 152 447 153 442 155 442 c 0
 159 442 162 429 162 406 c 0
 162 388 160 375 157 375 c 0
 154 375 152 354 152 330 c 0
 152 306 154 287 157 287 c 0
 160 287 162 306 162 340 c 0
 162 363 163 372 166 372 c 0
 171 372 175 350 175 317 c 0
 175 301 176 293 176 280 c 0
 176 230 162 267 162 228 c 0
 162 198 154 191 124 191 c 0
 101 191 89 195 89 199 c 0
 89 204 112 238 118 285 c 0
 120 301 118 305 118 310 c 0
 118 314 117 316 110 316 c 0
 90 316 85 302 70 302 c 0
 65 302 31 304 31 352 c 0
 31 381 43 384 122 384 c 0
 122 384 126 384 128 392 c 0
 131 400 128 406 128 416 c 0
 128 431 122 450 114 458 c 0
 102 470 71 474 -6 474 c 2
 -14 474 l 2
 -97 474 -109 473 -122 460 c 0
 -126 456 -128 453 -128 447 c 2
 -128 446 l 2
 -128 445 -127 441 -124 415 c 0
 -121 386 -120 384 -80 384 c 0
 -32 384 -20 381 -20 362 c 0
 -20 338 -41 302 -55 302 c 0
 -65 302 -96 319 -105 319 c 0
 -107 319 -108 318 -108 318 c 2
 -111 316 -111 310 -111 310 c 0
 -111 279 -109 253 -109 216 c 0
 -109 216 -109 191 -131 191 c 0
 -135 191 -138 192 -138 194 c 0
 -138 197 -146 200 -157 200 c 2
 -176 200 l 1
-224 419 m 0
 -224 214 -219 155 -202 137 c 2
 -191 126 l 1
 -58 126 77 123 210 123 c 1
 217 134 l 2
 224 143 227 204 227 291 c 0
 227 414 221 503 210 548 c 0
 206 564 203 568 -16 568 c 2
 -210 568 l 1
 -217 553 l 2
 -223 541 -224 510 -224 419 c 0
-273 301 m 0
 -273 588 -269 603 -264 608 c 0
 -257 616 -236 616 1 616 c 0
 238 616 263 616 267 609 c 0
 271 601 273 522 273 328 c 0
 273 134 271 89 264 80 c 0
 259 72 239 72 239 72 c 0
 -239 72 -259 73 -264 80 c 0
 -272 91 -273 157 -273 301 c 0
EndSplineSet
Validated: 1
EndChar

StartChar: S
Encoding: 83 83 34
Width: 0
VWidth: 897
Flags: HMW
LayerCount: 2
Back
Fore
SplineSet
156 191 m 0
 156 194 158 195 161 195 c 0
 164 195 165 194 165 191 c 0
 165 188 164 186 161 186 c 0
 158 186 156 188 156 191 c 0
56 163 m 0
 56 166 72 169 94 169 c 0
 116 169 132 172 132 175 c 0
 132 176 133 178 135 178 c 0
 138 178 139 171 139 163 c 0
 139 155 138 153 136 153 c 0
 134 153 132 155 132 156 c 0
 132 159 118 163 79 163 c 0
 67 163 l 0
 58 163 56 162 56 163 c 0
48 190 m 0
 48 193 113 203 130 203 c 0
 135 203 139 202 139 199 c 0
 139 197 137 198 134 195 c 0
 128 189 114 186 88 186 c 0
 62 186 48 189 48 190 c 0
-47 352 m 0
 -35 363 -16 369 -0 369 c 0
 9 369 17 367 24 363 c 2
 37 356 l 1
 37 305 l 2
 37 281 30 244 30 220 c 2
 30 186 l 1
 18 186 l 2
 12 186 7 188 7 190 c 0
 7 192 1 195 -7 195 c 2
 -21 195 l 1
 -21 247 l 2
 -21 303 -25 320 -46 342 c 0
 -51 347 -51 348 -47 352 c 0
-69 163 m 0
 -69 166 -68 169 -65 169 c 0
 -62 169 -60 166 -60 163 c 0
 -60 160 -62 163 -65 163 c 0
 -68 163 -69 160 -69 163 c 0
-128 195 m 0
 -135 195 -138 196 -138 198 c 0
 -138 201 -128 205 -116 205 c 0
 -100 205 -61 198 -61 191 c 0
 -61 188 -66 186 -73 186 c 0
 -80 186 -85 188 -85 191 c 0
 -85 194 -90 195 -94 195 c 0
 -98 195 -102 194 -102 191 c 0
 -102 188 -106 186 -110 186 c 0
 -114 186 -118 188 -118 191 c 0
 -118 194 -122 195 -128 195 c 0
-152 283 m 0
 -152 407 -150 435 -146 445 c 0
 -142 454 -135 455 -135 445 c 0
 -135 439 -133 436 -128 436 c 0
 -123 436 -117 439 -112 446 c 2
 -105 455 l 1
 129 455 l 1
 135 436 135 436 135 436 c 0
 148 436 156 423 156 406 c 0
 156 400 155 398 148 401 c 0
 146 402 143 403 142 403 c 0
 140 403 139 405 139 421 c 0
 139 421 139 428 136 428 c 0
 134 428 132 422 132 414 c 0
 132 408 133 403 135 403 c 0
 138 403 139 390 139 372 c 0
 139 354 138 344 136 344 c 0
 133 344 132 329 132 307 c 0
 132 285 133 270 136 270 c 0
 139 270 139 282 139 282 c 0
 139 336 141 344 145 344 c 2
 146 344 l 2
 152 343 156 331 156 315 c 0
 156 302 153 281 150 274 c 0
 147 266 138 261 129 261 c 0
 110 261 78 282 78 291 c 0
 78 300 110 328 110 384 c 0
 110 384 110 400 92 405 c 0
 77 409 22 412 -37 412 c 0
 -105 412 -105 408 -105 408 c 0
 -105 372 -93 349 -93 308 c 2
 -93 304 l 2
 -93 292 -93 261 -125 261 c 0
 -152 261 -152 283 -152 283 c 0
-194 364 m 0
 -194 210 -189 156 -174 140 c 2
 -164 130 l 1
 -49 130 66 128 181 128 c 1
 187 137 l 2
 193 146 196 200 196 280 c 0
 196 372 192 454 178 508 c 0
 177 510 177 511 -14 511 c 2
 -180 511 l 1
 -187 499 l 2
 -192 488 -194 461 -194 364 c 0
-235 518 m 0
 -235 518 -235 538 -229 545 c 0
 -222 552 -201 553 203 553 c 0
 203 553 227 553 230 547 c 0
 234 539 235 465 235 127 c 0
 235 127 235 98 228 89 c 0
 225 85 220 84 0 84 c 0
 -220 84 -223 85 -225 88 c 0
 -234 99 -235 144 -235 518 c 0
EndSplineSet
Validated: 1
EndChar

StartChar: T
Encoding: 84 84 35
Width: 0
VWidth: 890
Flags: HMW
LayerCount: 2
Back
Fore
SplineSet
103 112 m 0
 103 115 111 117 121 117 c 0
 131 117 138 119 138 123 c 0
 138 124 139 125 141 125 c 0
 144 125 146 120 146 112 c 0
 146 104 144 99 141 99 c 0
 139 99 138 100 138 101 c 0
 138 105 132 107 122 107 c 0
 112 107 103 109 103 112 c 0
-72 112 m 0
 -72 115 -71 117 -68 117 c 0
 -65 117 -64 115 -64 112 c 0
 -64 109 -65 107 -68 107 c 0
 -71 107 -72 109 -72 112 c 0
-160 324 m 0
 -160 376 -159 405 -156 412 c 0
 -153 420 -143 415 -143 406 c 0
 -143 401 -140 397 -134 397 c 0
 -127 397 -118 404 -118 409 c 0
 -118 414 -127 417 -125 421 c 0
 -122 426 -103 427 -32 427 c 2
 -14 427 l 2
 87 427 146 423 146 418 c 0
 146 417 148 417 146 416 c 0
 137 413 137 397 147 397 c 0
 156 397 163 384 163 369 c 0
 163 361 161 357 156 360 c 0
 153 361 150 361 150 361 c 0
 147 361 146 366 146 374 c 0
 146 382 145 388 142 388 c 0
 139 388 138 384 138 376 c 0
 138 368 139 361 142 361 c 0
 145 361 146 352 146 332 c 0
 146 312 145 300 142 300 c 0
 139 300 138 284 138 260 c 0
 138 236 139 221 142 221 c 0
 145 221 146 239 146 267 c 0
 146 295 147 299 152 299 c 2
 153 299 l 2
 158 298 162 275 162 242 c 0
 162 209 158 189 151 187 c 0
 148 186 146 181 146 166 c 0
 146 140 140 134 114 134 c 0
 93 134 82 138 82 143 c 0
 82 144 83 143 83 143 c 1
 100 153 116 241 116 337 c 2
 116 344 l 2
 116 376 116 379 -9 379 c 2
 -10 379 l 2
 -102 379 -112 377 -112 356 c 0
 -112 330 -97 298 -97 279 c 0
 -97 249 -133 248 -133 248 c 1
 -140 248 -145 251 -150 256 c 0
 -159 265 -160 272 -160 324 c 0
-160 151 m 0
 -160 162 -151 168 -140 168 c 0
 -126 168 -62 157 -61 157 c 2
 -39 157 l 2
 -25 157 -25 157 -25 157 c 0
 -25 202 -32 261 -32 294 c 0
 -32 307 -31 317 -9 317 c 0
 11 317 33 309 42 298 c 0
 46 293 46 288 41 277 c 0
 33 259 29 239 29 196 c 2
 29 134 l 1
 17 134 l 2
 12 134 7 136 7 138 c 0
 7 141 -7 143 -29 143 c 0
 -51 143 -64 141 -64 137 c 0
 -64 135 -69 134 -75 134 c 0
 -83 134 -90 136 -90 139 c 0
 -90 142 -94 143 -98 143 c 0
 -103 143 -107 141 -107 138 c 0
 -107 135 -111 134 -115 134 c 0
 -121 134 -125 136 -125 138 c 0
 -125 141 -134 143 -146 143 c 0
 -158 143 -160 145 -160 151 c 0
-204 342 m 0
 -204 161 -200 103 -184 86 c 2
 -173 75 l 1
 -52 75 69 72 190 72 c 1
 196 82 l 2
 202 91 206 148 206 234 c 0
 206 339 200 419 187 466 c 0
 185 475 185 475 -15 475 c 2
 -190 475 l 1
 -197 463 l 2
 -203 453 -204 433 -204 342 c 0
-247 278 m 0
 -247 494 -247 505 -240 513 c 0
 -234 520 -227 520 -227 520 c 0
 235 520 238 519 240 516 c 0
 246 505 247 428 247 250 c 0
 247 72 246 42 241 34 c 0
 236 26 214 26 214 26 c 0
 -216 26 -236 27 -242 35 c 0
 -247 42 -247 62 -247 278 c 0
EndSplineSet
Validated: 1
EndChar

StartChar: U
Encoding: 85 85 36
Width: 0
VWidth: 895
Flags: HMW
LayerCount: 2
Back
Fore
SplineSet
117 120 m 0
 117 123 127 126 139 126 c 0
 151 126 157 129 157 132 c 0
 157 134 160 136 162 136 c 0
 165 136 167 128 167 120 c 0
 167 112 165 106 161 106 c 0
 160 106 157 107 157 109 c 0
 157 112 151 115 138 115 c 0
 127 115 117 117 117 120 c 0
-176 155 m 1
 -176 309 l 2
 -176 421 -174 462 -167 465 c 0
 -164 466 -162 462 -162 456 c 0
 -162 450 -160 446 -155 446 c 0
 -147 446 -133 455 -133 461 c 0
 -133 466 -143 466 -143 472 c 0
 -143 479 -126 481 -24 481 c 0
 136 481 168 476 168 470 c 0
 168 469 167 468 165 467 c 0
 161 465 157 460 157 455 c 0
 157 450 162 446 168 446 c 0
 179 446 187 433 187 414 c 0
 187 404 185 401 177 404 c 0
 175 405 171 406 170 406 c 0
 168 406 167 411 167 418 c 0
 167 428 165 436 162 436 c 0
 159 436 157 429 157 421 c 0
 157 413 159 406 162 406 c 0
 165 406 167 392 167 372 c 0
 167 352 165 336 162 336 c 0
 159 336 157 320 157 294 c 0
 157 268 159 245 162 245 c 0
 165 245 167 268 167 296 c 0
 167 324 169 333 175 333 c 0
 175 333 l 0
 182 332 184 323 184 271 c 0
 184 219 182 208 174 206 c 0
 169 205 167 200 167 182 c 0
 167 152 161 148 98 148 c 0
 98 148 99 148 99 149 c 0
 99 153 138 237 138 350 c 0
 138 405 129 418 77 429 c 0
 69 431 66 431 59 432 c 0
 54 432 52 432 50 431 c 2
 36 425 l 1
 36 371 l 2
 36 354 42 343 42 328 c 0
 42 317 39 302 16 302 c 0
 -3 302 -42 312 -42 331 c 0
 -42 344 -23 391 -23 413 c 0
 -23 426 -30 431 -60 431 c 2
 -66 431 l 2
 -110 431 -127 420 -127 398 c 0
 -127 391 -125 388 -125 380 c 0
 -125 354 -107 212 -107 185 c 0
 -107 179 -106 176 -106 171 c 0
 -106 150 -122 160 -122 152 c 0
 -122 148 -125 148 -133 148 c 0
 -141 148 -143 148 -143 150 c 0
 -143 153 -150 155 -160 155 c 2
 -176 155 l 1
-232 380 m 0
 -232 167 -228 109 -210 91 c 2
 -197 75 l 1
 217 75 l 1
 224 86 l 2
 231 97 235 164 235 256 c 0
 235 369 229 467 215 527 c 0
 213 535 213 535 -17 535 c 2
 -217 535 l 1
 -224 521 l 2
 -231 510 -232 487 -232 380 c 0
-282 351 m 0
 -282 544 -281 568 -273 578 c 0
 -267 585 -258 585 5 585 c 0
 268 585 272 585 274 582 c 0
 280 571 282 486 282 280 c 0
 282 74 280 41 273 30 c 0
 269 24 264 24 0 24 c 0
 -264 24 -269 24 -273 29 c 0
 -280 41 -282 77 -282 351 c 0
EndSplineSet
Validated: 5
EndChar

StartChar: V
Encoding: 86 86 37
Width: 0
VWidth: 897
Flags: HMW
LayerCount: 2
Back
Fore
SplineSet
164 413 m 0
 164 418 164 421 167 421 c 0
 170 421 171 417 171 413 c 0
 171 409 170 405 167 405 c 0
 164 405 164 408 164 413 c 0
147 196 m 0
 147 199 149 201 152 201 c 0
 155 201 156 199 156 196 c 0
 156 193 155 192 152 192 c 0
 149 192 147 193 147 196 c 0
108 173 m 0
 108 176 112 177 116 177 c 0
 120 177 125 178 125 181 c 0
 125 183 126 184 128 184 c 0
 138 184 129 169 115 169 c 0
 111 169 108 170 108 173 c 0
-11 437 m 0
 -11 456 -4 456 -4 456 c 0
 92 456 124 455 131 451 c 0
 133 449 133 446 130 445 c 0
 122 442 124 428 133 428 c 0
 140 428 147 418 147 410 c 0
 147 399 132 404 132 414 c 0
 132 417 130 421 128 421 c 0
 126 421 125 418 125 416 c 0
 125 411 121 407 114 405 c 0
 109 403 108 401 108 349 c 0
 108 349 108 327 89 327 c 0
 71 327 46 346 46 361 c 0
 46 373 64 385 64 403 c 0
 64 403 64 405 55 405 c 0
 40 405 29 399 18 399 c 0
 -1 399 -11 415 -11 437 c 0
-131 315 m 1
 -131 369 l 2
 -131 422 -131 428 -125 428 c 0
 -120 428 -113 432 -110 435 c 0
 -101 444 -119 448 -119 455 c 0
 -119 459 -113 460 -102 462 c 2
 -91 462 l 2
 -75 462 -59 458 -54 454 c 0
 -51 451 -50 448 -50 442 c 0
 -50 436 -51 433 -51 430 c 0
 -52 426 -51 423 -51 418 c 0
 -51 368 64 261 107 228 c 0
 124 216 132 207 132 203 c 0
 132 196 114 192 83 192 c 0
 67 192 65 193 55 204 c 0
 45 215 29 234 15 249 c 0
 -36 303 -80 371 -83 371 c 0
 -84 371 -85 365 -85 357 c 0
 -85 344 -82 333 -82 319 c 0
 -82 296 -74 259 -74 235 c 2
 -74 196 l 1
 -84 199 l 2
 -92 201 -96 200 -96 197 c 0
 -96 194 -100 192 -104 192 c 0
 -108 192 -112 194 -112 196 c 0
 -112 198 -116 200 -121 201 c 2
 -130 201 l 1
 -131 315 l 1
-183 361 m 0
 -183 216 -178 165 -164 150 c 2
 -155 137 l 1
 171 137 l 1
 176 146 l 2
 182 155 186 212 186 288 c 0
 186 382 180 452 168 499 c 1
 -170 499 l 1
 -176 488 l 2
 -181 478 -183 452 -183 361 c 0
-222 322 m 0
 -222 503 -221 524 -215 531 c 0
 -209 538 -190 539 0 539 c 0
 190 539 214 538 217 532 c 0
 220 526 222 461 222 293 c 0
 222 125 220 107 215 101 c 0
 212 97 208 96 -208 96 c 0
 -208 96 -211 96 -214 100 c 0
 -221 110 -222 141 -222 322 c 0
EndSplineSet
Validated: 1
EndChar

StartChar: W
Encoding: 87 87 38
Width: 0
VWidth: 906
Flags: HMW
LayerCount: 2
Back
Fore
SplineSet
156 206 m 1
 156 215 l 1
 159 215 162 214 162 211 c 0
 162 208 159 206 156 206 c 1
-172 237 m 0
 -172 240 -72 305 -18 360 c 0
 28 408 84 494 84 511 c 2
 84 512 l 2
 82 514 37 516 -27 516 c 2
 -39 516 l 2
 -100 516 -118 514 -118 481 c 1
 -106 437 l 2
 -101 417 -99 408 -99 403 c 0
 -99 381 -133 370 -149 370 c 0
 -154 370 -167 371 -167 472 c 0
 -167 521 -164 534 -161 534 c 0
 -159 534 -157 526 -157 522 c 0
 -157 518 -155 516 -150 516 c 0
 -141 516 -132 524 -132 529 c 0
 -132 538 -156 549 -156 557 c 0
 -156 562 -146 569 -140 561 c 0
 -137 557 -132 554 -124 554 c 0
 -107 554 -142 568 -51 568 c 0
 -3 568 37 564 90 564 c 0
 135 564 152 561 152 553 c 0
 152 551 153 550 153 548 c 0
 156 539 169 540 160 535 c 0
 157 534 154 532 153 529 c 0
 153 527 152 527 152 525 c 0
 152 523 153 522 153 521 c 0
 154 518 157 516 161 516 c 0
 173 516 181 501 181 482 c 0
 181 473 179 466 176 466 c 0
 171 466 162 483 162 494 c 0
 162 500 159 505 156 505 c 2
 156 505 152 503 152 484 c 0
 152 484 152 476 155 476 c 0
 159 476 162 464 162 444 c 0
 162 424 159 409 156 409 c 0
 155 409 155 405 155 398 c 0
 154 388 152 376 152 363 c 2
 152 363 153 321 156 321 c 0
 159 321 162 345 162 406 c 0
 162 406 162 409 169 409 c 0
 180 409 182 402 182 362 c 0
 182 333 183 325 183 308 c 0
 183 285 181 283 172 283 c 0
 163 283 162 281 162 268 c 0
 162 233 154 226 132 226 c 2
 130 226 l 2
 110 226 100 231 100 238 c 0
 100 251 134 323 134 439 c 0
 134 459 133 472 130 472 c 0
 127 472 114 454 104 437 c 0
 59 361 -65 225 -90 225 c 0
 -93 225 -99 227 -99 230 c 0
 -99 232 -102 234 -108 234 c 0
 -114 234 -119 232 -119 229 c 0
 -119 226 -123 225 -128 225 c 0
 -133 225 -138 226 -138 229 c 0
 -138 232 -144 234 -154 234 c 0
 -164 234 -172 236 -172 237 c 0
-225 453 m 0
 -225 249 -220 190 -203 172 c 2
 -191 159 l 1
 209 159 l 1
 216 168 l 2
 223 178 227 243 227 335 c 0
 227 447 221 537 211 576 c 0
 207 592 202 599 135 599 c 0
 91 599 39 602 -17 602 c 2
 -210 602 l 1
 -218 586 l 2
 -224 574 -225 544 -225 453 c 0
-273 322 m 0
 -273 624 -269 639 -264 644 c 0
 -259 649 -248 651 -110 651 c 2
 -48 651 l 2
 226 651 262 650 266 642 c 0
 270 634 273 557 273 343 c 0
 273 169 271 124 263 112 c 0
 260 107 255 107 0 107 c 0
 -255 107 -261 107 -264 112 c 0
 -272 124 -273 171 -273 322 c 0
EndSplineSet
Validated: 1
EndChar

StartChar: X
Encoding: 88 88 39
Width: 0
VWidth: 906
Flags: HMW
LayerCount: 2
Back
Fore
SplineSet
156 206 m 1
 156 215 l 1
 159 215 162 214 162 211 c 0
 162 208 159 206 156 206 c 1
-172 237 m 0
 -172 240 -72 305 -18 360 c 0
 28 408 84 494 84 511 c 2
 84 512 l 2
 82 514 37 516 -27 516 c 2
 -39 516 l 2
 -100 516 -118 514 -118 481 c 1
 -106 437 l 2
 -101 417 -99 408 -99 403 c 0
 -99 381 -133 370 -149 370 c 0
 -154 370 -167 371 -167 472 c 0
 -167 521 -164 534 -161 534 c 0
 -159 534 -157 526 -157 522 c 0
 -157 518 -155 516 -150 516 c 0
 -141 516 -132 524 -132 529 c 0
 -132 538 -156 549 -156 557 c 0
 -156 562 -146 569 -140 561 c 0
 -137 557 -132 554 -124 554 c 0
 -107 554 -142 568 -51 568 c 0
 -3 568 37 564 90 564 c 0
 135 564 152 561 152 553 c 0
 152 551 153 550 153 548 c 0
 156 539 169 540 160 535 c 0
 157 534 154 532 153 529 c 0
 153 527 152 527 152 525 c 0
 152 523 153 522 153 521 c 0
 154 518 157 516 161 516 c 0
 173 516 181 501 181 482 c 0
 181 473 179 466 176 466 c 0
 171 466 162 483 162 494 c 0
 162 500 159 505 156 505 c 2
 156 505 152 503 152 484 c 0
 152 484 152 476 155 476 c 0
 159 476 162 464 162 444 c 0
 162 424 159 409 156 409 c 0
 155 409 155 405 155 398 c 0
 154 388 152 376 152 363 c 2
 152 363 153 321 156 321 c 0
 159 321 162 345 162 406 c 0
 162 406 162 409 169 409 c 0
 180 409 182 402 182 362 c 0
 182 333 183 325 183 308 c 0
 183 285 181 283 172 283 c 0
 163 283 162 281 162 268 c 0
 162 233 154 226 132 226 c 2
 130 226 l 2
 110 226 100 231 100 238 c 0
 100 251 134 323 134 439 c 0
 134 459 133 472 130 472 c 0
 127 472 114 454 104 437 c 0
 59 361 -65 225 -90 225 c 0
 -93 225 -99 227 -99 230 c 0
 -99 232 -102 234 -108 234 c 0
 -114 234 -119 232 -119 229 c 0
 -119 226 -123 225 -128 225 c 0
 -133 225 -138 226 -138 229 c 0
 -138 232 -144 234 -154 234 c 0
 -164 234 -172 236 -172 237 c 0
-225 453 m 0
 -225 249 -220 190 -203 172 c 2
 -191 159 l 1
 209 159 l 1
 216 168 l 2
 223 178 227 243 227 335 c 0
 227 447 221 537 211 576 c 0
 207 592 202 599 135 599 c 0
 91 599 39 602 -17 602 c 2
 -210 602 l 1
 -218 586 l 2
 -224 574 -225 544 -225 453 c 0
-273 322 m 0
 -273 624 -269 639 -264 644 c 0
 -259 649 -248 651 -110 651 c 2
 -48 651 l 2
 226 651 262 650 266 642 c 0
 270 634 273 557 273 343 c 0
 273 169 271 124 263 112 c 0
 260 107 255 107 0 107 c 0
 -255 107 -261 107 -264 112 c 0
 -272 124 -273 171 -273 322 c 0
EndSplineSet
Validated: 1
EndChar

StartChar: Y
Encoding: 89 89 40
Width: 0
VWidth: 890
Flags: HMW
LayerCount: 2
Back
Fore
SplineSet
-123 384 m 0
 -123 376 -122 373 -122 366 c 2
 -122 331 l 1
 -60 331 l 2
 1 331 16 327 16 313 c 0
 16 302 8 263 -13 253 c 1
 -27 253 -70 281 -115 281 c 0
 -115 281 -119 281 -119 262 c 0
 -119 243 -115 222 -110 207 c 0
 -101 178 -89 175 15 175 c 2
 19 175 l 2
 111 175 110 175 111 178 c 0
 121 198 123 217 123 247 c 0
 123 299 117 361 110 386 c 0
 101 415 84 419 -23 419 c 2
 -85 419 l 2
 -101 419 -105 420 -109 419 c 0
 -116 416 -123 404 -123 384 c 0
-172 305 m 0
 -172 362 -170 395 -166 398 c 0
 -164 399 -163 409 -167 425 c 0
 -167 425 -168 426 -158 426 c 0
 -148 426 -146 425 -146 420 c 0
 -146 412 -142 408 -138 408 c 0
 -135 408 -130 411 -122 419 c 1
 -121 418 -121 418 -121 418 c 0
 -121 427 -153 451 -153 460 c 0
 -153 463 -148 466 -143 466 c 0
 -135 466 -128 459 -128 451 c 0
 -128 446 -125 443 -120 443 c 0
 -114 443 -110 448 -108 460 c 2
 -108 464 l 1
 -48 464 -35 465 0 465 c 0
 50 465 56 463 58 459 c 0
 60 453 71 452 104 452 c 0
 137 452 141 451 141 444 c 0
 141 430 157 432 151 429 c 0
 145 426 142 421 142 415 c 0
 142 411 144 408 149 408 c 0
 159 408 168 394 168 377 c 0
 168 369 166 363 163 363 c 0
 158 363 150 378 150 387 c 0
 150 392 148 398 145 398 c 0
 142 398 141 394 141 386 c 0
 141 378 142 371 145 371 c 0
 148 371 150 360 150 338 c 0
 150 322 149 309 146 309 c 0
 143 309 141 291 141 264 c 0
 141 245 142 228 145 228 c 0
 148 228 150 256 150 278 c 0
 150 308 154 309 158 309 c 0
 167 309 168 305 168 251 c 0
 168 197 167 193 159 193 c 0
 151 193 150 189 150 176 c 0
 150 142 143 139 90 139 c 0
 59 139 51 140 51 143 c 0
 51 145 45 148 41 148 c 0
 37 148 34 146 34 143 c 0
 34 140 30 139 22 139 c 0
 14 139 6 140 6 143 c 0
 6 146 -6 148 -29 148 c 0
 -52 148 -65 146 -65 143 c 0
 -65 140 -72 139 -80 139 c 0
 -88 139 -92 140 -92 143 c 0
 -92 146 -96 148 -101 148 c 0
 -106 148 -110 146 -110 143 c 0
 -110 140 -113 139 -118 139 c 0
 -124 139 -128 141 -128 143 c 0
 -128 146 -137 148 -146 148 c 2
 -164 148 l 1
 -164 183 l 2
 -164 247 -172 190 -172 305 c 0
-208 356 m 0
 -208 160 -203 106 -187 90 c 2
 -177 79 l 1
 -54 79 71 76 194 76 c 1
 200 86 l 2
 206 95 210 159 210 242 c 0
 210 344 204 428 192 473 c 0
 189 486 188 488 -16 488 c 2
 -194 488 l 1
 -201 475 l 2
 -207 465 -208 444 -208 356 c 0
-253 8 m 1
 -253 35 l 2
 -253 409 -251 519 -244 527 c 0
 -239 533 -186 533 -186 533 c 0
 240 533 243 531 244 529 c 0
 250 518 253 424 253 201 c 0
 253 73 252 44 245 35 c 0
 241 30 236 30 -0 30 c 0
 -236 30 -240 30 -244 35 c 1
 -245 35 l 2
 -247 35 -251 8 -253 8 c 1
EndSplineSet
Validated: 1
EndChar

StartChar: Z
Encoding: 90 90 41
Width: 0
VWidth: 902
Flags: HMW
LayerCount: 2
Back
Fore
SplineSet
-17 552 m 1
 17 552 l 2
 50 552 50 551 51 546 c 0
 53 538 54 536 54 533 c 0
 54 529 52 521 50 517 c 0
 35 488 44 341 32 325 c 0
 28 321 28 308 22 308 c 0
 14 308 12 326 6 334 c 0
 1 342 0 356 0 369 c 0
 0 420 -14 457 -14 506 c 2
 -17 552 l 1
-124 346 m 2
 -124 358 l 2
 -124 482 -122 512 -116 515 c 0
 -113 516 -111 523 -111 531 c 0
 -111 539 -113 543 -116 543 c 0
 -118 543 -120 545 -120 547 c 0
 -120 550 -116 551 -109 551 c 0
 -102 551 -98 550 -93 550 c 2
 -68 550 l 1
 -68 509 l 2
 -68 463 -79 416 -79 367 c 0
 -79 338 -83 317 -83 290 c 0
 -83 277 -82 272 -78 268 c 0
 -70 258 -56 258 125 258 c 1
 125 368 115 478 105 505 c 0
 103 512 104 515 104 518 c 0
 104 523 108 525 126 525 c 0
 139 525 142 524 142 518 c 0
 142 503 159 504 151 500 c 0
 146 498 142 494 142 489 c 0
 142 483 147 480 151 480 c 0
 165 480 166 445 166 445 c 2
 166 442 166 440 164 440 c 0
 162 440 161 441 160 441 c 0
 158 442 153 444 152 444 c 0
 151 444 151 446 151 451 c 0
 152 462 150 470 147 470 c 0
 144 470 142 466 142 458 c 0
 142 450 144 444 146 444 c 0
 150 444 152 432 152 414 c 0
 152 396 150 380 147 380 c 0
 144 380 142 363 142 339 c 0
 142 315 144 298 147 298 c 0
 150 298 152 321 152 353 c 0
 152 375 153 379 158 379 c 0
 167 378 169 364 169 302 c 2
 169 294 l 2
 169 263 168 263 168 263 c 0
 154 263 152 260 152 241 c 0
 152 211 147 208 105 208 c 0
 70 208 52 210 52 213 c 0
 52 215 47 218 41 218 c 0
 37 218 34 216 34 214 c 0
 34 210 27 208 20 208 c 0
 13 208 6 210 6 213 c 0
 6 216 -6 218 -29 218 c 0
 -52 218 -66 216 -66 212 c 0
 -66 210 -72 208 -80 208 c 0
 -88 208 -93 210 -93 213 c 0
 -93 219 -111 219 -114 213 c 0
 -115 211 -115 208 -116 208 c 0
 -121 208 -124 250 -124 346 c 2
-210 516 m 0
 -210 228 -206 174 -190 158 c 2
 -179 147 l 1
 -54 147 71 145 196 145 c 1
 203 155 l 2
 209 164 213 228 213 312 c 0
 213 414 207 500 194 551 c 0
 192 559 192 561 -75 561 c 2
 -196 561 l 1
 -204 548 l 2
 -210 538 -210 516 -210 516 c 0
-255 566 m 0
 -255 566 -255 590 -249 597 c 0
 -241 605 -208 606 17 606 c 0
 242 606 247 605 249 602 c 0
 254 593 255 512 255 328 c 0
 255 144 254 113 246 103 c 0
 243 99 238 98 -240 98 c 0
 -240 98 -242 98 -245 102 c 0
 -254 113 -255 145 -255 566 c 0
EndSplineSet
Validated: 1
EndChar

StartChar: a
Encoding: 97 97 42
Width: 0
VWidth: 897
Flags: HMW
LayerCount: 2
Back
Fore
SplineSet
-335 584 m 0
 -335 593 -327 607 -315 620 c 2
 -297 641 l 1
 292 641 l 1
 314 620 l 2
 325 609 335 587 335 572 c 0
 335 562 331 556 326 556 c 0
 321 556 318 550 318 543 c 0
 318 536 315 505 261 505 c 0
 244 505 232 508 232 512 c 0
 232 518 200 522 146 522 c 2
 60 522 l 1
 60 473 l 2
 60 404 65 401 166 401 c 0
 267 401 295 398 304 389 c 0
 312 381 317 360 317 340 c 0
 317 325 314 315 311 315 c 0
 303 315 300 259 300 123 c 0
 300 12 298 6 251 6 c 0
 212 6 201 10 175 36 c 2
 144 67 l 1
 162 82 l 2
 172 90 180 105 180 114 c 0
 180 121 185 126 189 126 c 0
 194 126 197 133 197 141 c 0
 197 151 202 160 205 160 c 0
 211 160 214 183 214 217 c 0
 214 279 204 298 173 298 c 0
 159 298 146 302 146 305 c 0
 146 312 85 315 -30 315 c 0
 -145 315 -197 312 -197 305 c 0
 -197 302 -208 298 -217 298 c 0
 -229 298 -232 292 -232 268 c 0
 -232 244 -229 229 -224 229 c 0
 -219 229 -215 216 -215 196 c 0
 -215 176 -211 160 -207 160 c 0
 -201 160 -197 132 -197 85 c 0
 -197 52 -199 47 -218 28 c 0
 -245 1 -263 -11 -275 -11 c 0
 -280 -11 -283 -9 -283 -5 c 0
 -283 2 -291 6 -303 6 c 0
 -317 6 -318 12 -318 129 c 0
 -318 333 -315 379 -304 390 c 0
 -296 398 -267 401 -177 401 c 2
 -60 401 l 1
 -60 426 l 2
 -60 441 -55 453 -50 453 c 0
 -45 453 -42 462 -42 477 c 0
 -42 513 -61 537 -70 537 c 0
 -72 537 -73 536 -74 534 c 0
 -77 525 -97 522 -146 522 c 0
 -203 522 -232 518 -232 511 c 0
 -232 507 -244 505 -258 505 c 0
 -278 505 -298 509 -306 517 c 0
 -312 523 -318 540 -318 554 c 0
 -318 564 -321 574 -327 574 c 0
 -331 574 -335 578 -335 584 c 0
EndSplineSet
Validated: 1
EndChar

StartChar: b
Encoding: 98 98 43
Width: 0
VWidth: 899
Flags: HMW
LayerCount: 2
Back
Fore
SplineSet
-213 419 m 2
 -213 296 -202 192 -185 159 c 0
 -171 134 -136 119 -89 119 c 2
 -64 119 l 1
 -64 190 l 2
 -64 280 -55 280 -55 280 c 0
 30 280 73 238 73 229 c 0
 73 221 32 166 32 136 c 0
 32 131 33 129 33 128 c 0
 36 122 76 119 135 119 c 0
 211 119 214 124 214 234 c 2
 214 239 l 2
 214 361 197 477 171 511 c 0
 157 529 132 536 90 536 c 0
 46 536 46 528 46 528 c 0
 46 494 55 458 55 433 c 0
 55 411 48 385 12 385 c 0
 -26 385 -79 413 -79 436 c 0
 -79 454 -49 505 -49 525 c 0
 -49 534 -56 536 -115 536 c 0
 -208 536 -213 531 -213 427 c 2
 -213 419 l 2
-291 62 m 1
 -291 592 l 1
 -273 607 l 2
 -257 621 -242 621 -242 621 c 0
 224 621 270 620 278 607 c 0
 287 593 291 503 291 269 c 0
 291 104 289 65 279 53 c 0
 268 38 224 35 -69 35 c 2
 -109 35 l 2
 -234 35 -258 37 -272 49 c 2
 -291 62 l 1
EndSplineSet
Validated: 1
EndChar

StartChar: c
Encoding: 99 99 44
Width: 0
VWidth: 894
Flags: HMW
LayerCount: 2
Back
Fore
SplineSet
-47 313 m 0
 -47 346 -31 365 0 365 c 0
 33 365 57 344 57 313 c 0
 57 287 39 254 23 254 c 0
 16 254 3 261 -15 273 c 0
 -43 291 -47 297 -47 313 c 0
-247 507 m 0
 -247 516 -240 530 -232 534 c 0
 -218 541 -141 544 3 544 c 2
 14 544 l 2
 158 544 199 542 215 534 c 2
 234 523 l 1
 234 412 l 2
 234 295 231 280 204 280 c 0
 197 280 191 281 184 282 c 0
 155 287 145 295 145 314 c 0
 145 344 172 432 172 434 c 0
 172 434 171 432 171 437 c 0
 171 444 169 448 162 455 c 0
 146 471 132 474 26 474 c 0
 -97 474 -143 470 -157 454 c 0
 -165 444 -168 421 -168 383 c 0
 -168 298 -153 176 -140 159 c 0
 -130 145 -73 137 19 137 c 0
 150 137 202 153 214 153 c 0
 229 153 247 131 247 102 c 0
 247 84 240 67 232 64 c 0
 218 58 114 55 -40 55 c 2
 -66 55 l 2
 -191 55 -204 56 -217 66 c 2
 -232 79 l 1
 -232 271 l 2
 -232 331 -230 391 -230 468 c 0
 -230 468 -230 480 -232 484 c 0
 -234 488 -247 495 -247 507 c 0
EndSplineSet
Validated: 1
EndChar

StartChar: d
Encoding: 100 100 45
Width: 0
VWidth: 902
Flags: HMW
LayerCount: 2
Back
Fore
SplineSet
-239 454 m 2
 -239 467 l 2
 -239 546 -234 572 -221 579 c 0
 -204 587 -124 591 4 591 c 0
 132 591 216 587 232 579 c 0
 237 576 239 570 239 556 c 2
 239 551 l 2
 239 486 233 383 233 318 c 2
 233 120 l 1
 215 113 l 2
 207 110 200 108 192 108 c 0
 173 108 150 118 134 133 c 2
 115 152 l 1
 127 177 l 2
 148 220 166 318 166 413 c 2
 166 420 l 2
 166 483 163 489 150 499 c 0
 127 517 110 519 -15 519 c 2
 -61 519 l 2
 -160 519 -168 516 -168 470 c 0
 -168 437 -164 411 -118 411 c 0
 -92 411 -66 419 -30 419 c 0
 -4 419 4 423 19 423 c 0
 54 423 57 400 57 392 c 0
 57 368 33 315 6 315 c 0
 -6 315 -15 326 -20 326 c 0
 -21 326 -22 326 -23 325 c 0
 -29 319 -36 262 -36 223 c 0
 -36 202 -34 190 -32 187 c 0
 -28 182 -11 178 8 178 c 0
 41 178 57 166 57 140 c 0
 57 112 39 108 -65 108 c 0
 -203 108 -234 115 -234 135 c 0
 -234 151 -212 221 -184 221 c 0
 -168 221 -144 198 -127 198 c 0
 -116 198 -111 207 -111 238 c 2
 -111 248 l 2
 -111 312 -121 338 -138 338 c 0
 -148 338 -168 329 -196 329 c 0
 -238 329 -239 350 -239 454 c 2
EndSplineSet
Validated: 1
EndChar

StartChar: e
Encoding: 101 101 46
Width: 0
VWidth: 904
Flags: HMW
LayerCount: 2
Back
Fore
SplineSet
-157 285 m 0
 -157 191 -131 187 47 187 c 0
 136 187 156 188 162 195 c 0
 169 203 173 237 173 296 c 0
 173 373 166 444 156 486 c 0
 150 510 144 520 129 525 c 0
 111 530 59 534 -55 534 c 2
 -69 534 l 2
 -130 534 -157 381 -157 285 c 0
-242 136 m 1
 -242 287 -239 438 -239 589 c 1
 -223 597 l 2
 -214 602 -178 604 -91 604 c 0
 -30 604 -2 603 201 603 c 0
 201 603 224 603 229 595 c 0
 237 583 242 500 242 360 c 0
 242 220 237 139 229 127 c 0
 222 118 187 116 -46 116 c 2
 -167 116 l 2
 -198 116 -216 118 -227 125 c 2
 -242 136 l 1
EndSplineSet
Validated: 1
EndChar

StartChar: f
Encoding: 102 102 47
Width: 0
VWidth: 910
Flags: HMW
LayerCount: 2
Back
Fore
SplineSet
-241 203 m 0
 -241 210 -240 217 -232 233 c 0
 -223 251 -218 254 -195 254 c 0
 -165 254 -146 249 -107 249 c 0
 -58 249 -23 241 31 241 c 0
 70 241 112 245 121 250 c 0
 144 262 169 392 169 568 c 0
 169 568 169 580 -11 580 c 0
 -85 580 -145 578 -156 574 c 0
 -164 571 -169 559 -169 545 c 0
 -169 527 -160 488 -154 480 c 0
 -148 472 -125 470 -48 470 c 0
 46 470 54 467 54 435 c 2
 54 434 l 2
 54 412 46 390 26 369 c 2
 13 355 l 1
 -26 374 l 2
 -60 391 -71 394 -113 394 c 2
 -117 394 l 2
 -143 394 -180 391 -206 391 c 2
 -207 391 l 2
 -220 391 -227 392 -228 393 c 0
 -233 398 -236 475 -236 593 c 0
 -236 593 -236 616 -234 624 c 0
 -232 631 -224 641 -219 643 c 0
 -208 647 -104 651 27 651 c 2
 40 651 l 2
 223 651 241 648 241 622 c 2
 241 590 l 2
 241 524 234 424 234 311 c 0
 234 226 230 189 218 177 c 0
 206 165 168 163 -31 163 c 2
 -217 163 l 2
 -223 165 -232 150 -235 158 c 0
 -238 164 -241 190 -241 203 c 0
EndSplineSet
Validated: 1
EndChar

StartChar: g
Encoding: 103 103 48
Width: 0
VWidth: 904
Flags: HMW
LayerCount: 2
Back
Fore
SplineSet
-241 561 m 0
 -241 561 -241 586 -229 596 c 0
 -225 600 -217 603 -216 603 c 0
 -210 606 -134 608 -28 608 c 0
 140 608 226 603 236 595 c 0
 239 592 241 582 241 575 c 0
 241 548 215 515 179 515 c 0
 148 515 114 540 82 540 c 2
 58 540 l 1
 58 484 l 2
 58 467 50 455 50 440 c 0
 50 432 52 426 54 424 c 0
 60 418 96 415 149 415 c 0
 180 415 184 414 194 398 c 0
 199 389 201 384 201 381 c 0
 201 372 177 303 153 303 c 0
 136 303 88 335 64 335 c 0
 48 335 42 320 42 275 c 0
 42 249 44 238 56 225 c 0
 66 214 74 199 74 189 c 0
 74 170 46 120 33 117 c 2
 31 117 l 2
 12 117 -45 156 -133 156 c 2
 -141 156 l 1
 -107 224 -102 229 -78 229 c 0
 -60 229 -43 232 -38 235 c 0
 -30 239 -29 253 -29 306 c 2
 -29 308 l 2
 -29 393 -42 504 -56 530 c 0
 -60 538 -65 540 -101 540 c 2
 -103 540 l 2
 -163 540 -170 536 -170 500 c 0
 -170 439 -150 175 -143 156 c 1
 -146 156 -148 159 -154 156 c 0
 -169 150 -171 129 -218 129 c 0
 -233 129 -241 131 -241 561 c 0
-142 156 m 1
 -142 155 -142 155 -141 156 c 1
 -142 156 l 1
-142 156 m 1
 -143 156 l 1
 -143 155 -143 155 -142 156 c 1
EndSplineSet
Validated: 5
EndChar

StartChar: h
Encoding: 104 104 49
Width: 0
VWidth: 911
Flags: HMW
LayerCount: 2
Back
Fore
SplineSet
138 232 m 0
 138 276 164 291 180 291 c 0
 196 291 190 275 214 265 c 0
 232 258 239 245 239 227 c 0
 239 220 238 214 236 208 c 0
 230 186 219 181 172 181 c 0
 172 181 138 181 138 232 c 0
-62 441 m 0
 -62 444 -33 471 22 471 c 0
 67 471 67 453 67 453 c 0
 67 374 58 311 58 246 c 0
 58 209 55 163 16 163 c 0
 -14 163 -22 191 -22 285 c 2
 -22 387 l 1
 -42 412 l 2
 -56 430 -62 439 -62 441 c 0
-241 628 m 0
 -241 632 -239 637 -234 639 c 0
 -220 647 -133 651 13 651 c 0
 139 651 210 648 224 642 c 0
 233 638 241 623 241 537 c 0
 241 463 235 405 227 397 c 0
 224 394 212 391 198 391 c 0
 198 391 146 391 146 425 c 0
 146 447 169 503 169 542 c 0
 169 578 149 580 66 580 c 2
 43 580 l 2
 -103 580 -129 577 -148 565 c 2
 -167 553 l 1
 -167 455 l 2
 -167 280 -119 246 -119 219 c 0
 -119 187 -182 169 -202 169 c 0
 -226 169 -232 196 -232 367 c 0
 -232 576 -241 618 -241 628 c 0
EndSplineSet
Validated: 1
EndChar

StartChar: i
Encoding: 105 105 50
Width: 0
VWidth: 903
Flags: HMW
LayerCount: 2
Back
Fore
SplineSet
-235 522 m 1
 -235 577 l 1
 -235 585 l 1
 -225 590 -118 594 15 594 c 0
 130 594 205 591 221 583 c 0
 228 579 235 567 235 553 c 0
 235 515 182 499 171 499 c 0
 157 499 108 522 84 522 c 0
 75 522 69 519 65 510 c 0
 61 498 56 464 56 440 c 2
 56 383 l 1
 99 383 l 2
 136 383 149 379 160 365 c 0
 164 359 167 353 167 350 c 0
 167 343 145 272 111 272 c 0
 92 272 92 295 -22 315 c 0
 -59 321 -61 324 -61 336 c 0
 -61 390 -23 368 -23 422 c 0
 -23 435 -25 453 -30 474 c 0
 -39 519 -46 522 -101 522 c 0
 -165 522 -172 518 -172 487 c 0
 -172 434 -151 300 -151 236 c 0
 -151 222 -150 208 -150 192 c 0
 -150 148 -158 134 -186 120 c 0
 -192 117 -197 114 -203 114 c 0
 -206 114 -208 115 -218 119 c 1
 -235 522 l 1
EndSplineSet
Validated: 1
EndChar

StartChar: j
Encoding: 106 106 51
Width: 0
VWidth: 911
Flags: HMW
LayerCount: 2
Back
Fore
SplineSet
-247 406 m 0
 -247 545 -244 625 -241 630 c 0
 -240 631 -235 637 -230 639 c 0
 -216 647 -143 651 5 651 c 2
 16 651 l 2
 216 651 235 648 235 617 c 0
 235 580 209 557 171 557 c 0
 138 557 111 574 81 574 c 2
 80 574 l 2
 79 574 79 574 79 574 c 0
 66 574 65 573 57 528 c 0
 52 500 50 487 50 476 c 0
 50 456 56 451 80 451 c 0
 116 451 133 440 133 415 c 0
 133 382 102 337 84 337 c 0
 80 337 76 339 71 343 c 0
 45 363 -9 381 -39 381 c 0
 -66 381 -86 396 -86 415 c 0
 -86 432 -71 451 -48 451 c 0
 -31 451 -23 462 -23 488 c 0
 -23 504 -26 512 -26 542 c 0
 -26 577 -30 580 -101 580 c 0
 -172 580 -181 577 -181 525 c 0
 -181 500 -179 487 -179 444 c 0
 -179 352 -170 274 -156 260 c 0
 -147 251 -113 244 -75 244 c 0
 -47 244 -23 240 6 240 c 0
 67 240 130 257 190 257 c 0
 211 257 222 255 230 248 c 0
 240 239 247 219 247 189 c 0
 247 164 242 163 16 163 c 0
 -210 163 -229 164 -235 173 c 0
 -243 186 -247 246 -247 406 c 0
EndSplineSet
Validated: 1
EndChar

StartChar: k
Encoding: 107 107 52
Width: 0
VWidth: 901
Flags: HMW
LayerCount: 2
Back
Fore
SplineSet
-74 285 m 0
 -74 255 -73 234 -70 226 c 2
 -64 213 l 1
 63 213 l 1
 71 229 l 2
 76 240 80 261 80 275 c 2
 80 304 l 1
 37 304 l 2
 0 304 -24 317 -24 335 c 0
 -24 355 8 392 17 392 c 0
 23 392 47 377 69 377 c 2
 85 377 l 1
 85 422 l 2
 85 442 83 467 81 473 c 0
 78 481 66 483 13 483 c 2
 -52 483 l 1
 -62 453 l 2
 -69 430 -74 352 -74 285 c 0
-217 524 m 0
 -217 530 -216 538 -213 541 c 0
 -205 549 -150 551 0 551 c 2
 206 551 l 1
 213 537 l 2
 216 531 217 526 217 521 c 0
 217 511 214 499 206 487 c 0
 198 474 191 471 171 471 c 2
 146 471 l 1
 146 222 l 1
 170 222 l 2
 201 222 216 208 216 178 c 0
 216 167 214 152 212 150 c 0
 206 144 109 140 -66 140 c 2
 -94 140 l 2
 -204 140 -215 144 -215 173 c 0
 -215 196 -208 221 -174 221 c 0
 -167 221 -160 220 -153 220 c 0
 -146 220 -142 221 -140 223 c 0
 -135 228 -132 271 -132 350 c 2
 -132 471 l 1
 -163 471 l 2
 -188 471 -195 474 -203 484 c 0
 -212 495 -217 509 -217 524 c 0
EndSplineSet
Validated: 1
EndChar

StartChar: l
Encoding: 108 108 53
Width: 0
VWidth: 911
Flags: HMW
LayerCount: 2
Back
Fore
SplineSet
34 270 m 1
 130 240 l 1
 140 245 148 253 151 264 c 0
 154 274 160 314 160 327 c 0
 160 337 156 342 96 342 c 0
 36 342 34 337 34 270 c 1
-241 597 m 0
 -241 627 -240 636 -234 640 c 0
 -221 649 -172 651 16 651 c 2
 31 651 l 2
 192 651 220 649 230 640 c 0
 240 631 241 607 241 446 c 0
 241 218 239 187 223 165 c 0
 222 163 222 163 161 163 c 2
 66 163 l 2
 -37 163 -47 167 -47 206 c 0
 -47 227 -44 232 -44 255 c 0
 -44 290 -37 312 -37 346 c 0
 -37 395 -51 427 -51 455 c 0
 -51 470 -47 476 -31 484 c 0
 -14 492 1 495 14 495 c 0
 33 495 46 488 55 472 c 0
 69 446 102 429 136 429 c 2
 173 429 l 1
 173 492 l 2
 173 512 175 524 175 534 c 0
 175 570 149 586 4 586 c 0
 -77 586 -140 581 -154 561 c 0
 -162 551 -165 524 -165 491 c 0
 -165 423 -152 308 -125 249 c 0
 -118 235 -116 226 -116 220 c 0
 -116 188 -181 174 -197 174 c 0
 -207 174 -219 179 -223 189 c 0
 -230 209 -238 346 -238 448 c 0
 -238 510 -241 545 -241 597 c 0
EndSplineSet
Validated: 1
EndChar

StartChar: m
Encoding: 109 109 54
Width: 0
VWidth: 909
Flags: HMW
LayerCount: 2
Back
Fore
SplineSet
-241 349 m 0
 -241 508 -238 604 -234 610 c 0
 -233 612 -225 617 -223 618 c 0
 -213 624 -186 630 -144 630 c 0
 -102 630 -72 624 -59 620 c 0
 -46 616 -43 612 -43 602 c 0
 -43 574 -66 534 -82 531 c 2
 -84 531 l 2
 -106 531 -133 553 -153 553 c 0
 -172 553 -178 534 -178 488 c 0
 -178 442 -172 403 -172 344 c 0
 -172 251 -157 229 -91 229 c 0
 -77 229 -69 228 -59 228 c 0
 -34 228 -27 234 -27 264 c 2
 -27 270 l 2
 -27 334 -32 352 -51 375 c 0
 -61 386 -68 397 -68 404 c 0
 -68 418 -36 431 2 431 c 0
 53 431 54 408 54 394 c 0
 54 371 51 357 51 331 c 0
 51 301 47 280 47 253 c 0
 47 240 48 235 51 233 c 0
 55 230 76 228 102 228 c 2
 103 228 l 2
 155 228 160 234 160 310 c 2
 160 321 l 2
 160 486 150 538 124 541 c 2
 120 541 l 2
 96 541 97 531 82 531 c 0
 49 531 31 581 31 601 c 0
 31 617 42 630 132 630 c 0
 188 630 222 625 230 619 c 0
 236 615 241 601 241 590 c 0
 241 581 238 572 236 571 c 0
 230 568 228 504 228 378 c 2
 228 190 l 1
 197 163 l 1
 -13 163 l 2
 -39 163 -61 163 -61 163 c 0
 -200 163 -224 164 -231 174 c 0
 -239 184 -241 219 -241 349 c 0
EndSplineSet
Validated: 1
EndChar

StartChar: n
Encoding: 110 110 55
Width: 0
VWidth: 920
Flags: HMW
LayerCount: 2
Back
Fore
SplineSet
-239 304 m 0
 -239 408 -237 540 -237 612 c 0
 -237 684 -239 713 -239 721 c 1
 -236 721 -232 685 -153 685 c 0
 -106 685 -120 698 43 698 c 0
 133 698 215 694 232 686 c 0
 237 684 239 680 239 676 c 0
 239 665 226 610 226 305 c 0
 226 221 225 215 194 215 c 2
 193 215 l 2
 175 215 116 240 116 274 c 0
 116 288 126 265 146 366 c 0
 157 424 162 474 162 532 c 2
 162 558 l 2
 162 625 159 630 -43 630 c 2
 -69 630 l 2
 -159 630 -171 620 -171 580 c 0
 -171 568 -172 596 -172 586 c 0
 -172 532 -146 338 -146 293 c 0
 -146 248 -173 213 -211 213 c 0
 -238 213 -239 231 -239 304 c 0
EndSplineSet
Validated: 1
EndChar

StartChar: o
Encoding: 111 111 56
Width: 0
VWidth: 906
Flags: HMW
LayerCount: 2
Back
Fore
SplineSet
-240 369 m 1
 -240 447 -237 526 -237 604 c 1
 -221 613 l 2
 -211 618 -107 621 17 621 c 0
 141 621 204 618 221 612 c 0
 233 608 240 596 240 578 c 0
 240 551 224 542 224 472 c 0
 224 455 225 455 225 424 c 0
 225 393 224 355 224 319 c 2
 224 151 l 1
 208 140 l 2
 201 136 198 134 194 134 c 0
 180 134 112 160 112 186 c 0
 112 191 114 196 117 200 c 0
 139 231 163 377 163 481 c 0
 163 548 153 549 -16 549 c 2
 -68 549 l 2
 -133 549 -174 549 -174 510 c 0
 -174 481 -151 411 -151 391 c 0
 -151 365 -187 358 -206 358 c 0
 -213 358 -220 359 -224 362 c 2
 -240 369 l 1
EndSplineSet
Validated: 1
EndChar

StartChar: p
Encoding: 112 112 57
Width: 0
VWidth: 911
Flags: HMW
LayerCount: 2
Back
Fore
SplineSet
-241 182 m 1
 -241 333 -238 483 -238 634 c 1
 -222 642 l 2
 -213 647 -110 651 25 651 c 0
 141 651 209 648 224 643 c 0
 234 639 241 627 241 613 c 0
 241 585 210 556 176 556 c 0
 150 556 112 574 89 574 c 2
 88 574 l 2
 74 574 71 573 68 559 c 0
 62 530 57 452 57 390 c 0
 57 350 55 340 55 312 c 0
 55 264 61 252 87 252 c 0
 95 252 97 253 108 253 c 0
 141 253 168 262 179 262 c 0
 199 262 223 234 223 206 c 0
 223 198 221 188 218 185 c 0
 211 178 169 174 91 174 c 0
 35 174 -4 176 -16 183 c 0
 -22 187 -23 194 -23 243 c 0
 -23 406 -34 541 -49 569 c 0
 -54 579 -61 580 -95 580 c 0
 -142 580 -153 578 -166 565 c 0
 -173 558 -176 552 -176 548 c 0
 -176 535 -151 340 -151 266 c 0
 -151 200 -171 163 -200 163 c 0
 -208 163 -217 166 -226 172 c 2
 -241 182 l 1
EndSplineSet
Validated: 1
EndChar

StartChar: q
Encoding: 113 113 58
Width: 0
VWidth: 898
Flags: HMW
LayerCount: 2
Back
Fore
SplineSet
-183 430 m 0
 -183 404 -180 397 -126 397 c 0
 -85 397 -55 401 -48 410 c 0
 -42 418 -34 453 -34 474 c 2
 -34 529 l 1
 -81 529 l 2
 -159 529 -172 518 -181 449 c 0
 -183 437 -183 430 -183 430 c 0
-276 324 m 0
 -276 480 -272 585 -264 593 c 0
 -252 605 -9 605 3 608 c 2
 4 608 l 2
 9 608 22 605 31 602 c 2
 55 594 l 1
 55 478 l 2
 55 441 48 420 48 383 c 0
 48 324 66 277 66 265 c 0
 66 243 7 220 -29 220 c 0
 -40 220 -44 222 -54 237 c 0
 -84 281 -116 300 -164 300 c 2
 -165 300 l 2
 -196 300 -199 287 -199 247 c 0
 -199 119 -169 119 -169 119 c 0
 -76 119 -57 117 -14 117 c 0
 86 117 157 128 173 144 c 0
 183 155 190 188 190 235 c 0
 190 325 165 474 139 518 c 0
 135 525 132 533 132 539 c 0
 132 570 206 597 228 597 c 0
 258 597 269 548 269 409 c 0
 269 299 276 213 276 136 c 0
 276 85 273 60 269 56 c 0
 262 49 157 45 3 45 c 0
 -151 45 -260 49 -266 55 c 0
 -272 61 -276 168 -276 324 c 0
EndSplineSet
Validated: 1
EndChar

StartChar: r
Encoding: 114 114 59
Width: 0
VWidth: 900
Flags: HMW
LayerCount: 2
Back
Fore
SplineSet
-274 165 m 0
 -274 239 -271 260 -271 337 c 2
 -271 592 l 1
 -252 603 l 2
 -242 609 -187 611 -100 611 c 0
 50 611 266 605 271 601 c 0
 272 600 274 587 274 577 c 2
 274 574 l 2
 274 474 266 358 266 185 c 0
 266 98 264 58 227 58 c 0
 194 58 133 90 133 111 c 0
 133 128 174 182 174 249 c 0
 174 264 176 273 176 284 c 0
 176 291 175 294 164 294 c 0
 134 294 125 273 102 273 c 0
 68 273 43 316 43 357 c 0
 43 393 63 398 183 398 c 1
 183 398 191 419 191 443 c 0
 191 469 182 499 169 512 c 0
 151 530 108 536 -14 536 c 2
 -26 536 l 2
 -154 536 -170 534 -186 520 c 0
 -196 511 -200 503 -200 490 c 0
 -200 478 -197 472 -197 440 c 0
 -197 404 -193 398 -122 398 c 0
 -51 398 -37 392 -37 355 c 2
 -37 354 l 2
 -37 324 -70 272 -90 272 c 0
 -104 272 -151 299 -168 299 c 2
 -169 299 l 2
 -172 297 -174 285 -174 251 c 0
 -174 217 -172 167 -172 150 c 0
 -172 59 -228 58 -230 58 c 2
 -231 58 l 2
 -269 58 -274 69 -274 165 c 0
EndSplineSet
Validated: 1
EndChar

StartChar: s
Encoding: 115 115 60
Width: 0
VWidth: 896
Flags: HMW
LayerCount: 2
Back
Fore
SplineSet
-282 74 m 0
 -282 105 -260 131 -249 135 c 0
 -246 136 -241 136 -241 136 c 0
 -176 136 -127 120 -83 120 c 0
 -59 120 -51 125 -51 193 c 0
 -51 241 -55 305 -62 328 c 0
 -71 359 -102 378 -102 391 c 0
 -102 407 -54 430 -18 430 c 0
 -3 430 14 426 28 419 c 2
 51 407 l 1
 51 317 l 2
 51 278 37 214 37 175 c 2
 37 122 l 1
 70 122 l 2
 75 122 77 121 87 121 c 0
 126 121 197 138 234 138 c 0
 258 138 269 131 278 105 c 0
 281 96 284 85 284 76 c 0
 284 64 279 53 272 47 c 0
 260 35 236 33 97 33 c 2
 -276 33 l 1
 -279 39 -282 62 -282 74 c 0
-284 406 m 0
 -284 546 -281 575 -258 579 c 0
 -241 582 -137 584 36 584 c 0
 158 584 224 583 241 580 c 0
 260 577 274 562 274 538 c 0
 274 511 257 559 257 355 c 0
 257 285 255 266 242 252 c 0
 234 244 224 239 212 239 c 0
 183 239 124 271 124 295 c 0
 124 300 127 307 135 316 c 0
 161 343 181 399 181 453 c 0
 181 453 181 486 148 494 c 0
 123 500 25 505 -77 505 c 0
 -141 505 -177 503 -187 499 c 0
 -196 496 -201 483 -201 468 c 0
 -201 436 -180 397 -180 321 c 2
 -180 315 l 2
 -180 281 -182 272 -194 260 c 0
 -207 246 -223 238 -239 238 c 0
 -253 238 -266 244 -273 255 c 0
 -282 268 -284 291 -284 406 c 0
EndSplineSet
Validated: 1
EndChar

StartChar: t
Encoding: 116 116 61
Width: 0
VWidth: 893
Flags: HMW
LayerCount: 2
Back
Fore
SplineSet
-275 390 m 0
 -275 524 -270 558 -248 562 c 0
 -232 565 -130 567 12 567 c 0
 154 567 239 565 253 562 c 0
 268 559 285 539 285 522 c 0
 285 516 283 510 281 507 c 0
 266 490 261 354 261 15 c 2
 261 14 l 1
 214 14 137 40 137 71 c 0
 137 88 159 114 171 167 c 0
 182 219 190 327 190 481 c 0
 190 481 190 487 -20 487 c 2
 -22 487 l 2
 -175 487 -195 482 -195 451 c 0
 -195 416 -168 345 -168 315 c 0
 -168 273 -222 266 -233 266 c 0
 -241 266 -249 270 -259 280 c 0
 -273 294 -275 305 -275 390 c 0
-285 66 m 0
 -285 74 -283 81 -281 86 c 0
 -271 119 -258 129 -234 129 c 0
 -204 129 -144 113 -102 113 c 0
 -91 113 -82 112 -73 112 c 0
 -60 112 -46 114 -46 127 c 0
 -46 127 -46 128 -46 142 c 0
 -47 184 -59 282 -59 335 c 0
 -59 373 -53 383 -22 383 c 0
 31 383 71 353 71 337 c 0
 71 333 68 325 63 315 c 0
 49 285 45 258 45 187 c 0
 45 107 40 38 33 30 c 0
 28 24 -12 21 -102 21 c 0
 -206 21 -261 25 -272 32 c 0
 -279 36 -285 52 -285 66 c 0
EndSplineSet
Validated: 1
EndChar

StartChar: u
Encoding: 117 117 62
Width: 0
VWidth: 894
Flags: HMW
LayerCount: 2
Back
Fore
SplineSet
-276 296 m 2
 -276 297 l 2
 -276 452 -272 555 -266 563 c 0
 -264 565 -256 570 -253 571 c 0
 -245 573 -177 574 -36 574 c 2
 -13 574 l 2
 238 574 258 573 269 558 c 0
 273 552 276 544 276 536 c 0
 276 531 275 529 275 528 c 0
 269 507 263 346 263 137 c 0
 263 51 262 24 230 24 c 0
 201 24 133 47 133 79 c 0
 133 84 135 90 140 102 c 0
 168 175 190 301 190 393 c 0
 190 463 177 483 117 496 c 0
 103 499 88 502 75 503 c 0
 66 503 62 503 60 502 c 2
 40 495 l 1
 40 415 l 2
 40 390 48 374 48 340 c 0
 48 340 48 313 7 313 c 0
 -12 313 -34 319 -56 330 c 0
 -71 338 -74 342 -74 352 c 0
 -74 383 -47 444 -47 475 c 0
 -47 495 -58 502 -101 502 c 2
 -113 502 l 2
 -178 502 -200 488 -200 470 c 0
 -200 449 -172 214 -172 104 c 0
 -172 74 -174 65 -187 49 c 0
 -203 30 -217 23 -275 23 c 0
 -275 23 -276 23 -276 296 c 2
EndSplineSet
Validated: 1
EndChar

StartChar: v
Encoding: 118 118 63
Width: 0
VWidth: 898
Flags: HMW
LayerCount: 2
Back
Fore
SplineSet
-292 224 m 0
 -292 458 -288 567 -279 588 c 0
 -273 601 -257 601 -257 601 c 0
 -198 601 -155 592 -145 585 c 0
 -140 581 -138 574 -138 562 c 0
 -138 554 -139 548 -139 538 c 0
 -139 528 -140 522 -140 496 c 0
 -140 496 -140 467 -63 378 c 1
 -63 542 l 1
 -63 514 -51 488 -34 481 c 1
 -26 481 l 2
 -5 481 13 493 37 493 c 1
 23 452 11 404 -8 316 c 1
 -23 332 -37 347 -63 378 c 1
 -63 250 l 1
 -140 336 -188 427 -198 427 c 0
 -201 427 -205 415 -205 402 c 0
 -205 374 -185 240 -185 142 c 0
 -185 104 -188 49 -260 49 c 0
 -290 49 -292 59 -292 224 c 0
-29 213 m 1
 -21 255 -14 287 -8 316 c 1
 93 207 211 108 238 108 c 0
 250 108 254 86 254 81 c 0
 254 69 227 49 204 49 c 0
 195 49 188 52 169 52 c 0
 126 52 98 68 58 116 c 0
 33 147 3 177 -29 213 c 1
-29 213 m 1
 -45 124 -56 53 -59 49 c 1
 -59 104 -63 187 -63 250 c 1
 -55 241 -49 234 -29 213 c 1
37 493 m 1
 63 567 93 590 170 590 c 0
 212 590 268 583 281 574 c 0
 287 570 292 560 292 550 c 0
 292 527 265 479 243 479 c 0
 231 479 230 493 191 493 c 2
 159 493 l 1
 159 433 l 2
 159 384 157 371 144 358 c 0
 135 349 125 345 116 345 c 0
 89 345 42 383 42 404 c 0
 42 422 76 451 76 480 c 0
 76 490 72 493 54 493 c 2
 37 493 l 1
EndSplineSet
Validated: 5
EndChar

StartChar: w
Encoding: 119 119 64
Width: 0
VWidth: 896
Flags: HMW
LayerCount: 2
Back
Fore
SplineSet
-286 66 m 0
 -286 73 -274 84 -246 102 c 0
 -186 141 -84 225 -35 276 c 0
 26 340 117 471 117 498 c 0
 117 498 l 0
 113 502 34 505 -54 505 c 2
 -72 505 l 2
 -154 505 -167 504 -180 492 c 0
 -188 484 -192 476 -192 463 c 0
 -192 428 -165 360 -165 334 c 0
 -165 297 -220 283 -231 283 c 0
 -237 283 -245 287 -252 294 c 0
 -266 306 -268 320 -268 422 c 0
 -268 547 -265 568 -250 574 c 0
 -233 580 -152 585 15 585 c 0
 121 585 229 583 252 579 c 0
 272 576 286 562 286 545 c 0
 286 538 284 530 282 526 c 0
 264 488 276 101 265 56 c 0
 261 42 247 33 229 33 c 0
 216 33 201 38 182 48 c 0
 151 64 142 75 142 91 c 0
 142 98 144 105 149 116 c 0
 175 176 193 291 193 382 c 0
 193 419 190 437 186 437 c 0
 182 437 165 416 147 386 c 0
 108 319 27 219 -84 104 c 0
 -134 52 -142 47 -178 40 c 0
 -204 34 -222 32 -234 32 c 0
 -283 32 -286 63 -286 66 c 0
EndSplineSet
Validated: 5
EndChar

StartChar: x
Encoding: 120 120 65
Width: 0
VWidth: 897
Flags: HMW
LayerCount: 2
Back
Fore
SplineSet
-277 543 m 0
 -277 543 -277 576 -264 590 c 0
 -254 601 -235 602 -42 602 c 0
 231 602 257 600 269 588 c 0
 275 582 277 573 277 565 c 0
 277 532 242 498 206 498 c 0
 174 498 135 525 98 525 c 0
 98 525 94 525 91 523 c 0
 78 513 70 439 70 353 c 0
 70 285 65 255 65 205 c 0
 65 182 66 174 73 169 c 0
 82 162 101 158 116 158 c 0
 132 158 145 153 153 145 c 1
 153 278 161 373 174 381 c 0
 178 384 198 388 212 388 c 0
 244 388 263 367 263 328 c 0
 263 291 246 263 226 263 c 0
 220 263 215 266 212 269 c 0
 205 274 190 281 175 288 c 1
 174 288 l 2
 164 288 153 214 153 143 c 1
 159 135 162 128 162 120 c 0
 162 112 159 99 153 85 c 1
 153 83 l 1
 147 71 129 34 108 34 c 0
 100 34 88 40 78 47 c 0
 35 78 -32 82 -46 93 c 0
 -52 98 -55 108 -55 117 c 0
 -55 132 -48 148 -36 159 c 2
 -21 177 l 1
 -21 306 l 2
 -21 418 -35 508 -54 520 c 0
 -62 525 -88 528 -129 528 c 0
 -162 528 -168 526 -184 510 c 0
 -198 496 -201 490 -201 476 c 2
 -201 467 l 1
 -192 415 -173 214 -173 168 c 0
 -173 157 -172 145 -172 128 c 0
 -172 99 -175 89 -192 72 c 0
 -208 56 -222 48 -233 48 c 0
 -242 48 -253 53 -263 63 c 0
 -276 76 -277 89 -277 543 c 0
EndSplineSet
Validated: 1
EndChar

StartChar: y
Encoding: 121 121 66
Width: 0
VWidth: 898
Flags: HMW
LayerCount: 2
Back
Fore
SplineSet
-292 224 m 0
 -292 458 -288 567 -279 588 c 0
 -273 601 -257 601 -257 601 c 0
 -198 601 -155 592 -145 585 c 0
 -140 581 -138 574 -138 562 c 0
 -138 554 -139 548 -139 538 c 0
 -139 528 -140 522 -140 496 c 0
 -140 496 -140 467 -63 378 c 1
 -63 542 l 1
 -63 514 -51 488 -34 481 c 1
 -26 481 l 2
 -5 481 13 493 37 493 c 1
 23 452 11 404 -8 316 c 1
 -23 332 -37 347 -63 378 c 1
 -63 250 l 1
 -140 336 -188 427 -198 427 c 0
 -201 427 -205 415 -205 402 c 0
 -205 374 -185 240 -185 142 c 0
 -185 104 -188 49 -260 49 c 0
 -290 49 -292 59 -292 224 c 0
-29 213 m 1
 -21 255 -14 287 -8 316 c 1
 93 207 211 108 238 108 c 0
 250 108 254 86 254 81 c 0
 254 69 227 49 204 49 c 0
 195 49 188 52 169 52 c 0
 126 52 98 68 58 116 c 0
 33 147 3 177 -29 213 c 1
-29 213 m 1
 -45 124 -56 53 -59 49 c 1
 -59 104 -63 187 -63 250 c 1
 -55 241 -49 234 -29 213 c 1
37 493 m 1
 63 567 93 590 170 590 c 0
 212 590 268 583 281 574 c 0
 287 570 292 560 292 550 c 0
 292 527 265 479 243 479 c 0
 231 479 230 493 191 493 c 2
 159 493 l 1
 159 433 l 2
 159 384 157 371 144 358 c 0
 135 349 125 345 116 345 c 0
 89 345 42 383 42 404 c 0
 42 422 76 451 76 480 c 0
 76 490 72 493 54 493 c 2
 37 493 l 1
EndSplineSet
Validated: 5
EndChar

StartChar: z
Encoding: 122 122 67
Width: 0
VWidth: 897
Flags: HMW
LayerCount: 2
Back
Fore
SplineSet
-277 303 m 1
 -277 375 l 2
 -277 524 -277 555 -275 567 c 0
 -272 592 -254 607 -234 607 c 0
 -216 607 -198 595 -184 573 c 0
 -174 557 -169 540 -169 498 c 0
 -169 415 -189 370 -189 289 c 0
 -189 241 -196 213 -196 178 c 0
 -196 159 -194 153 -186 144 c 0
 -173 130 -162 129 -60 129 c 1
 -60 211 -69 458 -69 543 c 0
 -69 543 -69 577 -33 577 c 0
 -5 577 60 557 60 532 c 0
 60 526 56 517 51 508 c 0
 38 484 36 462 36 386 c 0
 36 293 33 238 27 226 c 0
 23 219 11 214 -0 214 c 0
 -9 214 -20 217 -29 225 c 1
 -30 225 l 2
 -35 225 -38 200 -46 129 c 1
 188 129 l 1
 188 529 132 527 132 561 c 0
 132 601 209 623 233 623 c 0
 248 623 269 615 269 438 c 0
 269 328 277 247 277 164 c 0
 277 99 272 68 264 61 c 0
 252 51 176 47 -20 47 c 2
 -54 47 l 1
 -54 33 -57 8 -60 8 c 1
 -60 47 l 1
 -129 47 l 2
 -219 47 -243 50 -257 62 c 2
 -275 75 l 1
 -277 303 l 1
EndSplineSet
Validated: 1
EndChar

StartChar: braceleft
Encoding: 123 123 68
Width: 0
VWidth: 898
Flags: HMW
LayerCount: 2
Back
Fore
SplineSet
-125 362 m 0
 -125 582 -122 621 -113 641 c 0
 -107 653 -101 654 -75 654 c 0
 -38 654 -5 656 29 656 c 2
 37 656 l 2
 88 656 97 652 121 628 c 0
 121 628 125 624 125 615 c 0
 125 607 122 585 80 585 c 0
 58 585 32 591 9 591 c 0
 -22 591 -39 580 -47 559 c 0
 -58 526 -66 415 -66 307 c 0
 -66 269 -65 248 -65 219 c 2
 -65 81 l 1
 -45 66 l 2
 -33 56 -28 54 -17 54 c 0
 9 54 44 65 55 71 c 2
 81 84 l 1
 94 69 l 2
 98 65 113 48 113 23 c 0
 113 -5 94 -10 17 -10 c 2
 9 -10 l 2
 -35 -10 -69 -8 -102 0 c 0
 -112 2 -112 2 -113 5 c 0
 -122 34 -125 142 -125 362 c 0
EndSplineSet
Validated: 1
EndChar

StartChar: braceright
Encoding: 125 125 69
Width: 0
VWidth: 897
Flags: HMW
LayerCount: 2
Back
Fore
SplineSet
-122 608 m 0
 -122 650 -55 651 -27 651 c 0
 -26 651 l 0
 31 651 111 642 115 635 c 0
 120 628 122 503 122 315 c 2
 122 6 l 1
 106 -4 l 2
 95 -12 46 -17 -20 -17 c 0
 -93 -17 -111 -11 -111 17 c 0
 -111 32 -106 46 -94 60 c 2
 -77 78 l 1
 -51 64 l 2
 -34 54 -11 48 9 48 c 0
 28 48 44 53 49 59 c 0
 62 74 68 154 68 269 c 0
 68 418 58 530 44 559 c 0
 36 575 17 584 -18 584 c 0
 -49 584 -65 577 -83 577 c 0
 -122 577 -122 608 -122 608 c 0
EndSplineSet
Validated: 1
EndChar

StartChar: colon
Encoding: 58 58 70
Width: 0
VWidth: 893
Flags: HMW
LayerCount: 2
Back
Fore
SplineSet
137 305 m 0
 137 321 143 348 196 348 c 0
 196 348 234 348 234 301 c 0
 234 274 221 244 207 244 c 0
 194 244 169 268 157 268 c 0
 147 268 137 285 137 305 c 0
-49 302 m 0
 -49 311 -46 349 -3 349 c 0
 9 349 49 346 49 301 c 0
 49 281 41 263 28 250 c 2
 12 235 l 1
 -3 250 l 2
 -9 256 -21 265 -29 269 c 0
 -41 275 -49 287 -49 302 c 0
-234 301 m 0
 -234 332 -220 348 -193 348 c 0
 -160 348 -136 325 -136 303 c 0
 -136 283 -156 247 -168 244 c 2
 -169 244 l 2
 -176 244 -190 252 -208 264 c 0
 -230 279 -234 284 -234 301 c 0
EndSplineSet
Validated: 1
EndChar
